<svg xmlns="http://www.w3.org/2000/svg" width="147" height="35" viewBox="0 0 147 35"><title>logo-comsatel-sin-slogan</title><path d="M27.36,7a1.45,1.45,0,0,1,1.55,1.34v.06a1.5,1.5,0,1,1-3,0A1.45,1.45,0,0,1,27.36,7m11.7,12.4.1.1h0v.1h0v.1h0a.11.11,0,0,0,.1.1h0v.1h0V20h0v.1h0v.1h0v.1h0v.1h0v.2h0v.1h0v.1h0v.1h0V21h0v.1h0v.1h0v.1h0v.1h0v.1h0v.1h0v.2h0v.1h0V22h0v.1h0v.1h0v.1h0c0,.1-.1.1-.1.2v.2h0a14.8,14.8,0,0,1-2.9,3.6h0l.1-.1.1-.1.1-.1h0v-.1l.1-.1.1-.1h0a.1.1,0,0,1,.1-.1h0l.1-.1.1-.1a.1.1,0,0,1,.1-.1v-.1l.1-.1h0l.1-.1h0a.1.1,0,0,1,.1-.1h0v-.1h0a.1.1,0,0,1,.1-.1h0a9.09,9.09,0,0,0,.9-2.3h0a1.23,1.23,0,0,0-.2-1.2c-1-1.3-4.8-.3-8.5,2.2a18.4,18.4,0,0,0-3.8,3.3s-.1.1-.1,0-.1-.1,0-.1a4.34,4.34,0,0,1,.8-1.3h0a16.64,16.64,0,0,1,1.25-1.4h0a14.37,14.37,0,0,1,2.6-2.2c3.2-2.2,6.8-2.8,8.4-2h0c-.1-.6.1-.5.2-.3Zm-.7-1.5a1.53,1.53,0,0,0-.4-.7c-1.5-1.8-6-.7-9.9,2.4s-5.9,7.2-4.4,9a2.88,2.88,0,0,0,1.3.8c.2,0,.3.1.5.1a.09.09,0,0,1,.1.1h0c0,.1,0,.1-.1.1-1.6.2-2.9-.1-3.6-1-1.8-2.1.4-6.8,5-10.5a23,23,0,0,1,2.8-1.9h0a13.9,13.9,0,0,1,6.3-1.9h0a3.52,3.52,0,0,1,2.4,1,2,2,0,0,1,.4,1.3,2.63,2.63,0,0,1-.3,1.2l-.1.1C38.46,17.87,38.36,17.87,38.36,17.87ZM37,13.17v.4a.1.1,0,0,1-.1.1h-.1c0-.1-.1-.1-.1-.2h0l-.1-.1h0c-1.4-1.9-5.9-1-10,1.9a20.41,20.41,0,0,0-6.3,6.8c-1,1.8-1.2,3.5-.3,4.4h0l.4.4V27l-.1.1a3.25,3.25,0,0,1-1.7-1c-2-2.4.4-7.5,5.4-11.5s10.6-5.3,12.6-2.9A2.35,2.35,0,0,1,37,13.17Zm-19.8,9.6a6.68,6.68,0,0,1-.8-.6c-1.2-1.5-.6-4.1,1.4-6.8a19,19,0,0,1,1.9-2.2,27,27,0,0,1,3.25-2.6v-.2l-.4-.4s-.1-.1,0-.1a.1.1,0,0,1,.1-.1h0l3.1-.6h.1v.1l-1.1,3.2-.1.1a.11.11,0,0,1-.1-.1h0l-.3-.6-.1-.1H24a20.07,20.07,0,0,0-2.5,1.9c-2.9,2.6-4.5,5.6-4.4,7.7a2.63,2.63,0,0,0,.3,1.2v.1Z" fill="#e50004" fill-rule="evenodd"/><path d="M47.26,10.07l4.8,14.1,5-14.1a1.21,1.21,0,0,1,1.1-.7h4.3a1.1,1.1,0,0,1,1.1,1.1v16.9a1.12,1.12,0,0,1-1.1,1.1h-1.8a1.12,1.12,0,0,1-1.1-1.1V14.07l-5,13.6a1.25,1.25,0,0,1-1.1.7h-2.8a1.25,1.25,0,0,1-1.1-.7l-4.65-13.6v13.2a1.12,1.12,0,0,1-1.1,1.1H42a1.12,1.12,0,0,1-1.1-1.1V10.37A1.11,1.11,0,0,1,42,9.27h4.3a1.19,1.19,0,0,1,1,.8" fill="#070606"/><path d="M65.76,27.27V26a1.11,1.11,0,0,1,1.12-1.1h8a7,7,0,0,0,3-.4,2,2,0,0,0,1.1-1.8,2.09,2.09,0,0,0-1.2-2,5.81,5.81,0,0,0-2.3-.4h-3.7c-2.3,0-3.9-.4-4.9-1.2a5.77,5.77,0,0,1-1.5-1.9,4.64,4.64,0,0,1-.5-2.4,6.29,6.29,0,0,1,1.2-3.7A5.23,5.23,0,0,1,70,9.17a18.76,18.76,0,0,1,2.7-.1h8.8a1.1,1.1,0,0,1,1.1,1.1v1.3a1.12,1.12,0,0,1-1.1,1.1h-7.9a14.38,14.38,0,0,0-2.7.2,1.76,1.76,0,0,0-1.4,1.9,1.8,1.8,0,0,0,1.1,1.8,4.68,4.68,0,0,0,2.6.5h3.2a11.53,11.53,0,0,1,3.7.4,4.69,4.69,0,0,1,2.9,2.4,7.34,7.34,0,0,1,.6,3,6.26,6.26,0,0,1-.8,3.1,4.72,4.72,0,0,1-3.5,2.3,27.58,27.58,0,0,1-3.4.2h-9a1.12,1.12,0,0,1-1.1-1.1" fill="#070606"/><path d="M96.16,20.57l-2.6-6.7-2.9,6.7Zm-12.8,6.3L90.76,10a1.18,1.18,0,0,1,1-.7h3.4a1,1,0,0,1,1,.7l7.4,16.9a1.17,1.17,0,0,1-.1,1,1.05,1.05,0,0,1-.9.5H100a1.25,1.25,0,0,1-1.1-.7L97.56,24h-7.9L88,27.77a1.2,1.2,0,0,1-1,.7h-2.6a1.05,1.05,0,0,1-.9-.5A1.41,1.41,0,0,1,83.36,26.87Z" fill="#070606"/><path d="M99.56,11.67v-1.3a1.11,1.11,0,0,1,1.1-1.1h15.1a1.11,1.11,0,0,1,1.15,1.07v1.33a1.12,1.12,0,0,1-1.1,1.1h-5.5v14.6a1.12,1.12,0,0,1-1.1,1.1h-2a1.12,1.12,0,0,1-1.1-1.1V12.77h-5.3a1.14,1.14,0,0,1-1.2-1.06v0" fill="#070606"/><path d="M131.56,10.37v1.3a1.12,1.12,0,0,1-1.1,1.1H126a12.32,12.32,0,0,0-3.2.3,3.92,3.92,0,0,0-1.7,1.1,3,3,0,0,0-.6,1.1,15,15,0,0,0-.3,1.9h7.4a1.1,1.1,0,0,1,1.1,1.1v1.3a1.12,1.12,0,0,1-1.1,1.1h-7.4a4.55,4.55,0,0,0,1.5,3.4,8,8,0,0,0,4.4,1h4.3a1.1,1.1,0,0,1,1.1,1.1v1.3a1.12,1.12,0,0,1-1.1,1.1h-4.45a24.32,24.32,0,0,1-4-.3,7.14,7.14,0,0,1-4.3-2.2,10.62,10.62,0,0,1-2.3-7.1,9.66,9.66,0,0,1,3.2-7.7,8.36,8.36,0,0,1,5.7-1.7h6.1a.94.94,0,0,1,1.23.5,1.09,1.09,0,0,1,.07.3" fill="#070606"/><path d="M134,9.37h2a1.1,1.1,0,0,1,1.1,1.1V20h0c.1,1.3.1,2.2.2,2.7a2.13,2.13,0,0,0,1.3,1.8,11,11,0,0,0,3.9.5h3a1.1,1.1,0,0,1,1.1,1.1v1.3a1.12,1.12,0,0,1-1.1,1.1h-3.4a26.45,26.45,0,0,1-4.7-.3h0a5.54,5.54,0,0,1-4.2-4,25.58,25.58,0,0,1-.4-4v-9.8a1.28,1.28,0,0,1,1.2-1" fill="#070606"/><path d="M16.56,26.07v1.3a1.12,1.12,0,0,1-1.1,1.1h-6a24.7,24.7,0,0,1-3.1-.2,7.24,7.24,0,0,1-5.3-3.9,12.22,12.22,0,0,1-1-5.4,10.59,10.59,0,0,1,1.6-6.2,6.54,6.54,0,0,1,3-2.5,13.41,13.41,0,0,1,4.9-.8h5.7a1.1,1.1,0,0,1,1.1,1.1v1.3a1.12,1.12,0,0,1-1.1,1.1h-5.1A5.37,5.37,0,0,0,6,14.47c-.7.5-1.1,2-1.1,4.1,0,2.8.6,4.7,1.7,5.5a6.48,6.48,0,0,0,3.8.9h5a1.19,1.19,0,0,1,1.2,1.1" fill="#070606"/></svg>