<?xml version="1.0" encoding="utf-8"?>
<!-- Generator: Adobe Illustrator 23.0.6, SVG Export Plug-In . SVG Version: 6.00 Build 0)  -->
<svg version="1.1" id="Capa_1" xmlns="http://www.w3.org/2000/svg" xmlns:xlink="http://www.w3.org/1999/xlink" x="0px" y="0px"
	 viewBox="0 0 117.6 61.9" style="enable-background:new 0 0 117.6 61.9;" xml:space="preserve">
<style type="text/css">
	.st0{clip-path:url(#SVGID_1_);}
	.st1{clip-path:url(#SVGID_2_);fill:#000021;}
	.st2{clip-path:url(#SVGID_3_);fill:#000021;}
	.st3{clip-path:url(#SVGID_4_);fill:#000021;}
	.st4{clip-path:url(#SVGID_5_);fill:#000021;}
	.st5{clip-path:url(#SVGID_6_);fill:#000021;}
	.st6{clip-path:url(#SVGID_7_);fill:#000021;}
	.st7{clip-path:url(#SVGID_8_);fill:#000021;}
	.st8{clip-path:url(#SVGID_9_);fill:#000021;}
	.st9{clip-path:url(#SVGID_10_);fill:#000021;}
	.st10{clip-path:url(#SVGID_11_);fill:#000021;}
	.st11{clip-path:url(#SVGID_12_);fill:#000021;}
	.st12{clip-path:url(#SVGID_13_);fill:#005CB9;}
	.st13{clip-path:url(#SVGID_14_);fill:#000021;}
	.st14{clip-path:url(#SVGID_15_);fill:#000021;}
	.st15{clip-path:url(#SVGID_16_);fill:#000021;}
</style>
<g>
	<g>
		<g>
			<defs>
				<rect id="SVGID_33_" x="-71.4" y="-44.1" width="260" height="152"/>
			</defs>
			<clipPath id="SVGID_1_">
				<use xlink:href="#SVGID_33_"  style="overflow:visible;"/>
			</clipPath>
			<g class="st0">
				<g>
					<defs>
						<rect id="SVGID_35_" x="-71.4" y="-44.1" width="260" height="152"/>
					</defs>
					<clipPath id="SVGID_2_">
						<use xlink:href="#SVGID_35_"  style="overflow:visible;"/>
					</clipPath>
					<path class="st1" d="M77.5,41.8c-0.4-0.2-0.9-0.3-1.4-0.3c-0.6,0-1,0.1-1.4,0.3c-0.4,0.3-0.7,0.6-0.9,1
						c-0.2,0.4-0.3,0.9-0.3,1.5c0,0.6,0.1,1.1,0.3,1.5c0.2,0.4,0.6,0.7,0.9,1c0.4,0.3,0.9,0.3,1.4,0.3c0.6,0,1-0.1,1.4-0.3
						c0.4-0.3,0.7-0.6,0.9-1c0.2-0.4,0.3-0.9,0.3-1.5c0-0.6-0.1-1.1-0.3-1.5C78.3,42.4,78,42.1,77.5,41.8 M77.4,45.8
						c-0.3,0.3-0.7,0.5-1.2,0.5c-0.5,0-0.9-0.2-1.2-0.5c-0.3-0.3-0.4-0.9-0.4-1.4c0-0.6,0.1-1.1,0.4-1.5c0.3-0.3,0.7-0.5,1.2-0.5
						s0.9,0.2,1.2,0.5c0.3,0.3,0.4,0.9,0.4,1.5C77.8,45,77.6,45.4,77.4,45.8"/>
				</g>
				<g>
					<defs>
						<rect id="SVGID_37_" x="-71.4" y="-44.1" width="260" height="152"/>
					</defs>
					<clipPath id="SVGID_3_">
						<use xlink:href="#SVGID_37_"  style="overflow:visible;"/>
					</clipPath>
					<polygon class="st2" points="82.5,41.6 82.5,47.2 83.4,47.2 83.4,43.2 83.5,43.2 83.5,43.2 86.3,47.2 87.4,47.2 87.4,41.6 
						86.4,41.6 86.4,45.6 86.3,45.6 83.5,41.6 					"/>
				</g>
				<g>
					<defs>
						<rect id="SVGID_39_" x="-71.4" y="-44.1" width="260" height="152"/>
					</defs>
					<clipPath id="SVGID_4_">
						<use xlink:href="#SVGID_39_"  style="overflow:visible;"/>
					</clipPath>
					<path class="st3" d="M95.1,44.5C94.8,44.2,94.5,44,94,44l-1.1-0.3c-0.5-0.1-0.7-0.3-0.7-0.7c0-0.3,0.1-0.4,0.3-0.5
						s0.4-0.2,0.7-0.2c0.7,0,1,0.3,1.2,0.9h1c-0.1-0.5-0.2-0.9-0.6-1.2c-0.4-0.3-0.9-0.5-1.5-0.5c-0.6,0-1.1,0.1-1.5,0.5
						c-0.4,0.3-0.6,0.7-0.6,1.2c0,0.4,0.1,0.7,0.4,1c0.2,0.3,0.6,0.4,1,0.5l1.1,0.3c0.2,0.1,0.4,0.1,0.6,0.3
						c0.1,0.1,0.2,0.3,0.2,0.5c0,0.3-0.1,0.5-0.3,0.6c-0.2,0.1-0.4,0.2-0.8,0.2c-0.4,0-0.7-0.1-0.9-0.3c-0.2-0.1-0.4-0.4-0.4-0.7h-1
						c0.1,0.5,0.2,0.9,0.7,1.3c0.4,0.3,1,0.5,1.7,0.5c0.7,0,1.2-0.1,1.5-0.5c0.4-0.3,0.6-0.7,0.6-1.3C95.5,45.1,95.3,44.8,95.1,44.5
						"/>
				</g>
				<g>
					<defs>
						<rect id="SVGID_41_" x="-71.4" y="-44.1" width="260" height="152"/>
					</defs>
					<clipPath id="SVGID_5_">
						<use xlink:href="#SVGID_41_"  style="overflow:visible;"/>
					</clipPath>
					<path class="st4" d="M31.8,44l-1.1-0.3C30.2,43.6,30,43.4,30,43c0-0.3,0.1-0.4,0.3-0.5s0.4-0.2,0.7-0.2c0.7,0,1,0.3,1.2,0.9h1
						c-0.1-0.5-0.2-0.9-0.6-1.2c-0.4-0.3-0.9-0.5-1.5-0.5c-0.6,0-1.1,0.1-1.5,0.5c-0.4,0.3-0.6,0.7-0.6,1.2c0,0.4,0.1,0.7,0.4,1
						c0.2,0.3,0.6,0.4,1,0.5l1.1,0.3c0.2,0.1,0.4,0.1,0.6,0.3c0.1,0.1,0.2,0.3,0.2,0.5c0,0.3-0.1,0.5-0.3,0.6
						c-0.2,0.1-0.4,0.2-0.8,0.2c-0.4,0-0.7-0.1-0.9-0.3c-0.2-0.1-0.4-0.4-0.4-0.7h-1c0.1,0.5,0.2,0.9,0.7,1.3c0.4,0.3,1,0.5,1.7,0.5
						c0.7,0,1.2-0.1,1.5-0.5c0.4-0.3,0.6-0.7,0.6-1.3c0-0.4-0.1-0.8-0.3-1C32.7,44.2,32.3,44.1,31.8,44"/>
				</g>
				<g>
					<defs>
						<rect id="SVGID_43_" x="-71.4" y="-44.1" width="260" height="152"/>
					</defs>
					<clipPath id="SVGID_6_">
						<use xlink:href="#SVGID_43_"  style="overflow:visible;"/>
					</clipPath>
					<path class="st5" d="M40.7,41.8c-0.4-0.2-0.9-0.3-1.4-0.3c-0.6,0-1,0.1-1.4,0.3c-0.4,0.3-0.7,0.6-0.9,1
						c-0.2,0.4-0.3,0.9-0.3,1.5c0,0.6,0.1,1.1,0.3,1.5c0.2,0.4,0.6,0.7,0.9,1c0.4,0.3,0.9,0.3,1.4,0.3c0.6,0,1-0.1,1.4-0.3
						c0.4-0.2,0.7-0.6,0.9-1c0.2-0.4,0.3-0.9,0.3-1.5c0-0.6-0.1-1.1-0.3-1.5C41.4,42.4,41.1,42.1,40.7,41.8 M40.5,45.8
						c-0.3,0.3-0.7,0.5-1.2,0.5c-0.5,0-0.9-0.2-1.2-0.5c-0.3-0.3-0.4-0.9-0.4-1.4c0-0.6,0.1-1.1,0.4-1.5c0.3-0.3,0.7-0.5,1.2-0.5
						c0.6,0,0.9,0.2,1.2,0.5c0.3,0.3,0.4,0.9,0.4,1.5C41,45,40.8,45.4,40.5,45.8"/>
				</g>
				<g>
					<defs>
						<rect id="SVGID_45_" x="-71.4" y="-44.1" width="260" height="152"/>
					</defs>
					<clipPath id="SVGID_7_">
						<use xlink:href="#SVGID_45_"  style="overflow:visible;"/>
					</clipPath>
					<polygon class="st6" points="46.6,41.6 45.6,41.6 45.6,47.2 49.3,47.2 49.3,46.2 46.6,46.2 					"/>
				</g>
				<g>
					<defs>
						<rect id="SVGID_47_" x="-71.4" y="-44.1" width="260" height="152"/>
					</defs>
					<clipPath id="SVGID_8_">
						<use xlink:href="#SVGID_47_"  style="overflow:visible;"/>
					</clipPath>
					<path class="st7" d="M54.1,45.9c-0.2-0.3-0.3-0.6-0.3-1v-3.4h-1v3.6c0,0.5,0.1,0.9,0.2,1.2c0.2,0.3,0.4,0.5,0.8,0.7
						c0.4,0.1,0.7,0.2,1.2,0.2c0.7,0,1.3-0.2,1.7-0.5c0.4-0.3,0.6-0.9,0.6-1.6v-3.6h-1v3.4c0,0.4-0.1,0.7-0.3,0.9
						c-0.2,0.3-0.6,0.4-1,0.4C54.5,46.3,54.2,46.2,54.1,45.9"/>
				</g>
				<g>
					<defs>
						<rect id="SVGID_49_" x="-71.4" y="-44.1" width="260" height="152"/>
					</defs>
					<clipPath id="SVGID_9_">
						<use xlink:href="#SVGID_49_"  style="overflow:visible;"/>
					</clipPath>
					<polygon class="st8" points="62.5,47.2 63.5,47.2 63.5,42.5 65.2,42.5 65.2,41.6 60.8,41.6 60.8,42.5 62.5,42.5 					"/>
				</g>
				<g>
					<defs>
						<rect id="SVGID_51_" x="-71.4" y="-44.1" width="260" height="152"/>
					</defs>
					<clipPath id="SVGID_10_">
						<use xlink:href="#SVGID_51_"  style="overflow:visible;"/>
					</clipPath>
					<rect x="68.8" y="41.6" class="st9" width="1" height="5.6"/>
				</g>
				<g>
					<defs>
						<rect id="SVGID_53_" x="-71.4" y="-44.1" width="260" height="152"/>
					</defs>
					<clipPath id="SVGID_11_">
						<use xlink:href="#SVGID_53_"  style="overflow:visible;"/>
					</clipPath>
					<path class="st10" d="M26.3,16.6h-4.5L9.9,26.7v4h12v4h4.4V16.6z M14.9,27l7-6v6H14.9z"/>
				</g>
				<g>
					<defs>
						<rect id="SVGID_55_" x="-71.4" y="-44.1" width="260" height="152"/>
					</defs>
					<clipPath id="SVGID_12_">
						<use xlink:href="#SVGID_55_"  style="overflow:visible;"/>
					</clipPath>
					<path class="st11" d="M46.7,25.8c-0.7-0.3-1.5-0.5-2.3-0.5c0.7-0.1,1.3-0.3,1.8-0.5c0.7-0.3,1.3-0.9,1.7-1.5
						c0.4-0.7,0.6-1.4,0.6-2.3c0-1.4-0.4-2.5-1.4-3.3c-0.9-0.8-2.2-1.2-3.8-1.2H30.6v18.2h12.6c1.2,0,2.3-0.2,3.1-0.6
						c0.9-0.4,1.5-0.9,2-1.7c0.5-0.7,0.7-1.6,0.7-2.7c0-0.9-0.2-1.7-0.6-2.4C48,26.7,47.5,26.2,46.7,25.8 M35.1,20.2h7
						c0.6,0,1,0.1,1.3,0.5c0.3,0.3,0.5,0.7,0.5,1.3c0,0.4-0.1,0.7-0.2,0.9s-0.4,0.5-0.6,0.7c-0.2,0.1-0.6,0.2-0.9,0.2h-7.1V20.2z
						 M44.2,30.1c-0.2,0.3-0.4,0.5-0.7,0.7c-0.3,0.1-0.6,0.3-1,0.3h-7.4v-4h7.4c0.4,0,0.7,0.1,1,0.3c0.3,0.2,0.5,0.4,0.7,0.7
						c0.2,0.3,0.2,0.7,0.2,1.1C44.5,29.5,44.4,29.8,44.2,30.1"/>
				</g>
				<g>
					<defs>
						<rect id="SVGID_57_" x="-71.4" y="-44.1" width="260" height="152"/>
					</defs>
					<clipPath id="SVGID_13_">
						<use xlink:href="#SVGID_57_"  style="overflow:visible;"/>
					</clipPath>
					<polygon class="st12" points="54.7,16.6 49.6,16.6 57.9,27.9 53.1,34.7 58.3,34.7 62.8,27.9 					"/>
				</g>
				<g>
					<defs>
						<rect id="SVGID_59_" x="-71.4" y="-44.1" width="260" height="152"/>
					</defs>
					<clipPath id="SVGID_14_">
						<use xlink:href="#SVGID_59_"  style="overflow:visible;"/>
					</clipPath>
					<polygon class="st13" points="61.9,22.5 65.8,16.6 70.6,16.6 64.2,25.8 					"/>
				</g>
				<g>
					<defs>
						<rect id="SVGID_61_" x="-71.4" y="-44.1" width="260" height="152"/>
					</defs>
					<clipPath id="SVGID_15_">
						<use xlink:href="#SVGID_61_"  style="overflow:visible;"/>
					</clipPath>
					<polygon class="st14" points="72.4,20.2 78.4,20.2 78.4,34.7 82.9,34.7 82.9,20.2 88.9,20.2 88.9,16.6 72.4,16.6 					"/>
				</g>
				<g>
					<defs>
						<rect id="SVGID_63_" x="-71.4" y="-44.1" width="260" height="152"/>
					</defs>
					<clipPath id="SVGID_16_">
						<use xlink:href="#SVGID_63_"  style="overflow:visible;"/>
					</clipPath>
					<polygon class="st15" points="107.3,20.2 107.3,16.6 90.9,16.6 90.9,34.7 107.3,34.7 107.3,31 95.3,31 95.3,27.3 106.4,27.3 
						106.4,23.8 95.3,23.8 95.3,20.2 					"/>
				</g>
			</g>
		</g>
	</g>
</g>
</svg>
