<?xml version="1.0" encoding="utf-8"?>
<!-- Generator: Adobe Illustrator 23.0.6, SVG Export Plug-In . SVG Version: 6.00 Build 0)  -->
<svg version="1.1" id="Capa_1" xmlns="http://www.w3.org/2000/svg" xmlns:xlink="http://www.w3.org/1999/xlink" x="0px" y="0px"
	 viewBox="0 0 120 50.4" style="enable-background:new 0 0 120 50.4;" xml:space="preserve">
<style type="text/css">
	.st0{clip-path:url(#SVGID_2_);}
	.st1{clip-path:url(#SVGID_4_);fill:#000021;}
	.st2{clip-path:url(#SVGID_4_);fill:#005CB9;}
	.st3{clip-path:url(#SVGID_6_);fill:#DBE4F6;}
	.st4{clip-path:url(#SVGID_6_);}
	.st5{clip-path:url(#SVGID_8_);fill:#000021;}
	.st6{clip-path:url(#SVGID_8_);fill:#005CB9;}
	.st7{clip-path:url(#SVGID_10_);fill:#000021;}
	.st8{clip-path:url(#SVGID_10_);}
	.st9{clip-path:url(#SVGID_12_);fill:#FFFFFF;}
	.st10{clip-path:url(#SVGID_12_);fill:#005CB9;}
	.st11{clip-path:url(#SVGID_14_);fill:#DADADA;}
	.st12{clip-path:url(#SVGID_14_);}
	.st13{clip-path:url(#SVGID_16_);fill:#585959;}
	.st14{clip-path:url(#SVGID_18_);}
	.st15{clip-path:url(#SVGID_20_);fill:#FFFFFF;}
	.st16{clip-path:url(#SVGID_22_);}
	.st17{clip-path:url(#SVGID_24_);}
	.st18{clip-path:url(#SVGID_26_);fill:#000021;}
	.st19{clip-path:url(#SVGID_26_);}
	.st20{clip-path:url(#SVGID_28_);fill:#000021;}
	.st21{clip-path:url(#SVGID_28_);fill:#005CB9;}
	.st22{clip-path:url(#SVGID_30_);fill:#DBE4F6;}
	.st23{clip-path:url(#SVGID_30_);fill:#000021;}
	.st24{clip-path:url(#SVGID_30_);}
	.st25{clip-path:url(#SVGID_32_);fill:#000021;}
	.st26{clip-path:url(#SVGID_32_);fill:#005CB9;}
	.st27{clip-path:url(#SVGID_34_);fill:#000021;}
	.st28{clip-path:url(#SVGID_34_);fill:#FFFFFF;}
	.st29{clip-path:url(#SVGID_34_);}
	.st30{clip-path:url(#SVGID_36_);fill:#FFFFFF;}
	.st31{clip-path:url(#SVGID_36_);fill:#005CB9;}
	.st32{clip-path:url(#SVGID_38_);fill:#DADADA;}
	.st33{clip-path:url(#SVGID_38_);fill:#585959;}
	.st34{clip-path:url(#SVGID_38_);}
	.st35{clip-path:url(#SVGID_40_);fill:#585959;}
	.st36{clip-path:url(#SVGID_42_);}
	.st37{clip-path:url(#SVGID_42_);fill:#FFFFFF;}
	.st38{clip-path:url(#SVGID_44_);fill:#FFFFFF;}
	.st39{clip-path:url(#SVGID_46_);}
	.st40{clip-path:url(#SVGID_48_);}
	.st41{clip-path:url(#SVGID_50_);fill:#000021;}
	.st42{clip-path:url(#SVGID_50_);}
	.st43{clip-path:url(#SVGID_52_);fill:#000021;}
	.st44{clip-path:url(#SVGID_52_);fill:#005CB9;}
	.st45{clip-path:url(#SVGID_54_);fill:#DBE4F6;}
	.st46{clip-path:url(#SVGID_54_);fill:#000021;}
	.st47{clip-path:url(#SVGID_54_);}
	.st48{clip-path:url(#SVGID_56_);fill:#000021;}
	.st49{clip-path:url(#SVGID_56_);fill:#005CB9;}
	.st50{clip-path:url(#SVGID_58_);fill:#000021;}
	.st51{clip-path:url(#SVGID_58_);fill:#FFFFFF;}
	.st52{clip-path:url(#SVGID_58_);}
	.st53{clip-path:url(#SVGID_60_);fill:#FFFFFF;}
	.st54{clip-path:url(#SVGID_60_);fill:#005CB9;}
	.st55{clip-path:url(#SVGID_62_);fill:#DADADA;}
	.st56{clip-path:url(#SVGID_62_);fill:#585959;}
	.st57{clip-path:url(#SVGID_62_);}
	.st58{clip-path:url(#SVGID_64_);fill:#585959;}
	.st59{clip-path:url(#SVGID_66_);}
	.st60{clip-path:url(#SVGID_66_);fill:#FFFFFF;}
	.st61{clip-path:url(#SVGID_68_);fill:#FFFFFF;}
	.st62{clip-path:url(#SVGID_70_);}
	.st63{clip-path:url(#SVGID_72_);}
</style>
<g>
	<g>
		<defs>
			<rect id="SVGID_1_" x="-1894.3" y="43.3" width="423.2" height="226.8"/>
		</defs>
		<clipPath id="SVGID_2_">
			<use xlink:href="#SVGID_1_"  style="overflow:visible;"/>
		</clipPath>
		<g class="st0">
			<defs>
				<rect id="SVGID_3_" x="-1894.3" y="43.3" width="423.2" height="226.8"/>
			</defs>
			<clipPath id="SVGID_4_">
				<use xlink:href="#SVGID_3_"  style="overflow:visible;"/>
			</clipPath>
			<path class="st1" d="M-1651.9,171.5c-0.6-0.3-1.4-0.5-2.3-0.5c-0.9,0-1.6,0.2-2.3,0.5c-0.6,0.4-1.1,0.9-1.5,1.5
				c-0.4,0.6-0.5,1.4-0.5,2.3c0,0.9,0.2,1.6,0.5,2.3c0.4,0.6,0.9,1.1,1.5,1.5c0.6,0.4,1.4,0.5,2.3,0.5c0.9,0,1.6-0.2,2.3-0.5
				c0.6-0.4,1.1-0.9,1.5-1.5c0.4-0.6,0.5-1.4,0.5-2.3c0-0.9-0.2-1.7-0.5-2.3C-1650.8,172.4-1651.3,171.9-1651.9,171.5
				 M-1652.2,177.5c-0.5,0.5-1.1,0.8-2,0.8c-0.8,0-1.5-0.3-2-0.8c-0.5-0.5-0.7-1.3-0.7-2.1c0-0.9,0.2-1.6,0.7-2.2
				c0.5-0.5,1.1-0.8,2-0.8c0.9,0,1.5,0.3,2,0.8c0.5,0.5,0.7,1.3,0.7,2.2C-1651.5,176.2-1651.7,176.9-1652.2,177.5"/>
			<polygon class="st1" points="-1643.8,171.1 -1643.8,179.5 -1642.3,179.5 -1642.3,173.5 -1642.1,173.5 -1642.1,173.6 
				-1637.7,179.5 -1635.9,179.5 -1635.9,171.1 -1637.4,171.1 -1637.4,177.2 -1637.6,177.2 -1642.1,171.1 			"/>
			<path class="st1" d="M-1623.3,175.5c-0.4-0.4-1-0.7-1.8-0.8l-1.8-0.4c-0.8-0.1-1.1-0.5-1.1-1c0-0.4,0.2-0.6,0.5-0.8
				c0.3-0.2,0.7-0.3,1.2-0.3c1.1,0,1.7,0.4,2,1.3h1.6c-0.1-0.8-0.4-1.4-1-1.8c-0.6-0.5-1.5-0.7-2.5-0.7c-1,0-1.8,0.2-2.4,0.7
				c-0.6,0.4-0.9,1-0.9,1.8c0,0.6,0.2,1.1,0.6,1.5c0.4,0.4,1,0.6,1.7,0.8l1.8,0.4c0.4,0.1,0.7,0.2,0.9,0.4c0.2,0.2,0.3,0.4,0.3,0.7
				c0,0.4-0.2,0.7-0.5,0.9c-0.3,0.2-0.7,0.3-1.3,0.3c-0.6,0-1.2-0.1-1.5-0.4c-0.4-0.2-0.6-0.6-0.7-1h-1.6c0.1,0.8,0.4,1.4,1.1,1.9
				c0.7,0.5,1.6,0.7,2.7,0.7c1.1,0,1.9-0.2,2.5-0.7c0.6-0.4,0.9-1.1,0.9-1.9C-1622.7,176.4-1622.9,175.9-1623.3,175.5"/>
			<path class="st1" d="M-1726.3,174.7l-1.8-0.4c-0.8-0.2-1.1-0.5-1.1-1c0-0.4,0.2-0.6,0.5-0.8c0.3-0.2,0.7-0.3,1.2-0.3
				c1.1,0,1.7,0.4,2,1.3h1.6c-0.1-0.8-0.4-1.4-1-1.8c-0.6-0.5-1.5-0.7-2.5-0.7c-1,0-1.8,0.2-2.4,0.7c-0.6,0.4-0.9,1-0.9,1.8
				c0,0.6,0.2,1.1,0.6,1.5c0.4,0.4,1,0.6,1.7,0.8l1.8,0.4c0.4,0.1,0.7,0.2,0.9,0.4c0.2,0.2,0.3,0.4,0.3,0.7c0,0.4-0.2,0.7-0.5,0.9
				c-0.3,0.2-0.7,0.3-1.3,0.3c-0.6,0-1.2-0.1-1.5-0.4c-0.4-0.2-0.6-0.6-0.7-1h-1.6c0.1,0.8,0.4,1.4,1.1,1.9c0.7,0.5,1.6,0.7,2.7,0.7
				c1.1,0,1.9-0.2,2.5-0.7c0.6-0.4,0.9-1.1,0.9-1.9c0-0.6-0.2-1.2-0.5-1.5C-1724.9,175.1-1725.5,174.9-1726.3,174.7"/>
			<path class="st1" d="M-1711.9,171.5c-0.6-0.3-1.4-0.5-2.3-0.5c-0.9,0-1.6,0.2-2.3,0.5c-0.6,0.4-1.1,0.9-1.5,1.5
				c-0.4,0.6-0.5,1.4-0.5,2.3c0,0.9,0.2,1.6,0.5,2.3c0.4,0.6,0.9,1.1,1.5,1.5c0.6,0.4,1.4,0.5,2.3,0.5c0.9,0,1.6-0.2,2.3-0.5
				c0.6-0.3,1.1-0.9,1.5-1.5c0.4-0.6,0.5-1.4,0.5-2.3c0-0.9-0.2-1.7-0.5-2.3C-1710.7,172.4-1711.2,171.9-1711.9,171.5
				 M-1712.1,177.5c-0.5,0.5-1.1,0.8-2,0.8c-0.8,0-1.5-0.3-2-0.8c-0.5-0.5-0.7-1.3-0.7-2.1c0-0.9,0.2-1.6,0.7-2.2
				c0.5-0.5,1.1-0.8,2-0.8c0.9,0,1.5,0.3,2,0.8c0.5,0.5,0.7,1.3,0.7,2.2C-1711.4,176.2-1711.7,176.9-1712.1,177.5"/>
			<polygon class="st1" points="-1702.2,171.1 -1703.8,171.1 -1703.8,179.5 -1697.8,179.5 -1697.8,178.1 -1702.2,178.1 			"/>
			<path class="st1" d="M-1690.2,177.6c-0.3-0.4-0.5-0.9-0.5-1.5v-5h-1.6v5.3c0,0.7,0.2,1.4,0.5,1.8c0.3,0.5,0.7,0.8,1.3,1
				c0.6,0.2,1.2,0.3,2,0.3c1.2,0,2.1-0.3,2.8-0.8c0.7-0.5,1-1.3,1-2.4v-5.3h-1.6v5c0,0.6-0.2,1.1-0.5,1.4c-0.3,0.4-0.9,0.6-1.6,0.6
				C-1689.3,178.2-1689.8,178-1690.2,177.6"/>
			<polygon class="st1" points="-1676.3,179.5 -1674.8,179.5 -1674.8,172.5 -1672,172.5 -1672,171.1 -1679.1,171.1 -1679.1,172.5 
				-1676.3,172.5 			"/>
			<rect x="-1666.1" y="171.1" class="st1" width="1.6" height="8.4"/>
			<path class="st1" d="M-1735.3,133.8h-7.3l-19.3,15.2v5.9h19.5v6h7.1V133.8z M-1753.9,149.4l11.4-9v9H-1753.9z"/>
			<path class="st1" d="M-1702.1,147.6c-1.1-0.5-2.4-0.7-3.8-0.8c1.1-0.1,2.1-0.4,2.9-0.7c1.2-0.5,2.1-1.3,2.7-2.2
				c0.6-1,0.9-2.1,0.9-3.5c0-2.1-0.7-3.7-2.2-4.9c-1.5-1.2-3.5-1.8-6.2-1.8h-20.5v27.1h20.5c2,0,3.7-0.3,5.1-0.9
				c1.4-0.6,2.5-1.4,3.3-2.5c0.8-1.1,1.1-2.4,1.1-4c0-1.4-0.3-2.5-1-3.6C-1699.9,148.9-1700.9,148.2-1702.1,147.6 M-1720.9,139.2
				h11.4c0.9,0,1.6,0.2,2.1,0.7c0.5,0.5,0.8,1.1,0.8,1.9c0,0.6-0.1,1-0.3,1.4c-0.2,0.4-0.6,0.7-1,1c-0.4,0.2-0.9,0.3-1.5,0.3h-11.5
				V139.2z M-1706.1,154c-0.3,0.4-0.6,0.8-1.1,1c-0.5,0.2-1,0.4-1.6,0.4h-12.1v-5.9h12.1c0.6,0,1.1,0.1,1.6,0.4
				c0.5,0.3,0.8,0.6,1.1,1c0.3,0.4,0.4,1,0.4,1.6C-1705.7,153.1-1705.9,153.6-1706.1,154"/>
			<polygon class="st2" points="-1689,133.8 -1697.4,133.8 -1683.9,150.7 -1691.6,160.9 -1683.3,160.9 -1675.9,150.7 			"/>
			<polygon class="st1" points="-1677.4,142.7 -1670.9,133.8 -1663.2,133.8 -1673.6,147.6 			"/>
			<polygon class="st1" points="-1660.4,139.2 -1650.4,139.2 -1650.4,160.9 -1643.2,160.9 -1643.2,139.2 -1633.3,139.2 
				-1633.3,133.8 -1660.4,133.8 			"/>
			<polygon class="st1" points="-1603.5,139.3 -1603.5,133.8 -1630.1,133.8 -1630.1,160.9 -1603.5,160.9 -1603.5,155.4 
				-1622.9,155.4 -1622.9,149.9 -1604.9,149.9 -1604.9,144.6 -1622.9,144.6 -1622.9,139.3 			"/>
		</g>
	</g>
</g>
<g>
	<g>
		<defs>
			<rect id="SVGID_5_" x="-1451.1" y="43.3" width="423.2" height="226.8"/>
		</defs>
		<clipPath id="SVGID_6_">
			<use xlink:href="#SVGID_5_"  style="overflow:visible;"/>
		</clipPath>
		<rect x="-1451.1" y="43.3" class="st3" width="423.2" height="226.8"/>
		<g class="st4">
			<defs>
				<rect id="SVGID_7_" x="-1451.1" y="43.3" width="423.2" height="226.8"/>
			</defs>
			<clipPath id="SVGID_8_">
				<use xlink:href="#SVGID_7_"  style="overflow:visible;"/>
			</clipPath>
			<path class="st5" d="M-1208.7,171.5c-0.6-0.3-1.4-0.5-2.3-0.5c-0.9,0-1.6,0.2-2.3,0.5c-0.6,0.4-1.1,0.9-1.5,1.5
				c-0.4,0.6-0.5,1.4-0.5,2.3c0,0.9,0.2,1.6,0.5,2.3c0.4,0.6,0.9,1.1,1.5,1.5c0.6,0.4,1.4,0.5,2.3,0.5c0.9,0,1.6-0.2,2.3-0.5
				c0.6-0.4,1.1-0.9,1.5-1.5c0.4-0.6,0.5-1.4,0.5-2.3c0-0.9-0.2-1.7-0.5-2.3C-1207.6,172.4-1208.1,171.9-1208.7,171.5 M-1209,177.5
				c-0.5,0.5-1.1,0.8-2,0.8c-0.8,0-1.5-0.3-2-0.8c-0.5-0.5-0.7-1.3-0.7-2.1c0-0.9,0.2-1.6,0.7-2.2c0.5-0.5,1.1-0.8,2-0.8
				c0.9,0,1.5,0.3,2,0.8c0.5,0.5,0.7,1.3,0.7,2.2C-1208.3,176.2-1208.5,176.9-1209,177.5"/>
			<polygon class="st5" points="-1200.6,171.1 -1200.6,179.5 -1199.1,179.5 -1199.1,173.5 -1198.9,173.5 -1198.9,173.6 
				-1194.5,179.5 -1192.7,179.5 -1192.7,171.1 -1194.2,171.1 -1194.2,177.2 -1194.4,177.2 -1198.9,171.1 			"/>
			<path class="st5" d="M-1180.1,175.5c-0.4-0.4-1-0.7-1.8-0.8l-1.8-0.4c-0.8-0.1-1.1-0.5-1.1-1c0-0.4,0.2-0.6,0.5-0.8
				c0.3-0.2,0.7-0.3,1.2-0.3c1.1,0,1.7,0.4,2,1.3h1.6c-0.1-0.8-0.4-1.4-1-1.8c-0.6-0.5-1.5-0.7-2.5-0.7c-1,0-1.8,0.2-2.4,0.7
				c-0.6,0.4-0.9,1-0.9,1.8c0,0.6,0.2,1.1,0.6,1.5c0.4,0.4,1,0.6,1.7,0.8l1.8,0.4c0.4,0.1,0.7,0.2,0.9,0.4c0.2,0.2,0.3,0.4,0.3,0.7
				c0,0.4-0.2,0.7-0.5,0.9c-0.3,0.2-0.7,0.3-1.3,0.3c-0.6,0-1.2-0.1-1.5-0.4c-0.4-0.2-0.6-0.6-0.7-1h-1.6c0.1,0.8,0.4,1.4,1.1,1.9
				c0.7,0.5,1.6,0.7,2.7,0.7c1.1,0,1.9-0.2,2.5-0.7c0.6-0.4,0.9-1.1,0.9-1.9C-1179.5,176.4-1179.7,175.9-1180.1,175.5"/>
			<path class="st5" d="M-1283.1,174.7l-1.8-0.4c-0.8-0.2-1.1-0.5-1.1-1c0-0.4,0.2-0.6,0.5-0.8c0.3-0.2,0.7-0.3,1.2-0.3
				c1.1,0,1.7,0.4,2,1.3h1.6c-0.1-0.8-0.4-1.4-1-1.8c-0.6-0.5-1.5-0.7-2.5-0.7c-1,0-1.8,0.2-2.4,0.7c-0.6,0.4-0.9,1-0.9,1.8
				c0,0.6,0.2,1.1,0.6,1.5c0.4,0.4,1,0.6,1.7,0.8l1.8,0.4c0.4,0.1,0.7,0.2,0.9,0.4c0.2,0.2,0.3,0.4,0.3,0.7c0,0.4-0.2,0.7-0.5,0.9
				c-0.3,0.2-0.7,0.3-1.3,0.3c-0.6,0-1.2-0.1-1.5-0.4c-0.4-0.2-0.6-0.6-0.7-1h-1.6c0.1,0.8,0.4,1.4,1.1,1.9c0.7,0.5,1.6,0.7,2.7,0.7
				c1.1,0,1.9-0.2,2.5-0.7c0.6-0.4,0.9-1.1,0.9-1.9c0-0.6-0.2-1.2-0.5-1.5C-1281.7,175.1-1282.3,174.9-1283.1,174.7"/>
			<path class="st5" d="M-1268.7,171.5c-0.6-0.3-1.4-0.5-2.3-0.5c-0.9,0-1.6,0.2-2.3,0.5c-0.6,0.4-1.1,0.9-1.5,1.5
				c-0.4,0.6-0.5,1.4-0.5,2.3c0,0.9,0.2,1.6,0.5,2.3c0.4,0.6,0.9,1.1,1.5,1.5c0.6,0.4,1.4,0.5,2.3,0.5c0.9,0,1.6-0.2,2.3-0.5
				c0.6-0.3,1.1-0.9,1.5-1.5c0.4-0.6,0.5-1.4,0.5-2.3c0-0.9-0.2-1.7-0.5-2.3C-1267.5,172.4-1268,171.9-1268.7,171.5 M-1268.9,177.5
				c-0.5,0.5-1.1,0.8-2,0.8c-0.8,0-1.5-0.3-2-0.8c-0.5-0.5-0.7-1.3-0.7-2.1c0-0.9,0.2-1.6,0.7-2.2c0.5-0.5,1.1-0.8,2-0.8
				c0.9,0,1.5,0.3,2,0.8c0.5,0.5,0.7,1.3,0.7,2.2C-1268.2,176.2-1268.5,176.9-1268.9,177.5"/>
			<polygon class="st5" points="-1259,171.1 -1260.6,171.1 -1260.6,179.5 -1254.6,179.5 -1254.6,178.1 -1259,178.1 			"/>
			<path class="st5" d="M-1247,177.6c-0.3-0.4-0.5-0.9-0.5-1.5v-5h-1.6v5.3c0,0.7,0.2,1.4,0.5,1.8c0.3,0.5,0.7,0.8,1.3,1
				c0.6,0.2,1.2,0.3,2,0.3c1.2,0,2.1-0.3,2.8-0.8c0.7-0.5,1-1.3,1-2.4v-5.3h-1.6v5c0,0.6-0.2,1.1-0.5,1.4c-0.3,0.4-0.9,0.6-1.6,0.6
				C-1246.1,178.2-1246.6,178-1247,177.6"/>
			<polygon class="st5" points="-1233.1,179.5 -1231.6,179.5 -1231.6,172.5 -1228.8,172.5 -1228.8,171.1 -1235.9,171.1 
				-1235.9,172.5 -1233.1,172.5 			"/>
			<rect x="-1222.9" y="171.1" class="st5" width="1.6" height="8.4"/>
			<path class="st5" d="M-1292.1,133.8h-7.3l-19.3,15.2v5.9h19.5v6h7.1V133.8z M-1310.7,149.4l11.4-9v9H-1310.7z"/>
			<path class="st5" d="M-1258.9,147.6c-1.1-0.5-2.4-0.7-3.8-0.8c1.1-0.1,2.1-0.4,2.9-0.7c1.2-0.5,2.1-1.3,2.7-2.2
				c0.6-1,0.9-2.1,0.9-3.5c0-2.1-0.7-3.7-2.2-4.9c-1.5-1.2-3.5-1.8-6.2-1.8h-20.5v27.1h20.5c2,0,3.7-0.3,5.1-0.9
				c1.4-0.6,2.5-1.4,3.3-2.5c0.8-1.1,1.1-2.4,1.1-4c0-1.4-0.3-2.5-1-3.6C-1256.7,148.9-1257.7,148.2-1258.9,147.6 M-1277.7,139.2
				h11.4c0.9,0,1.6,0.2,2.1,0.7c0.5,0.5,0.8,1.1,0.8,1.9c0,0.6-0.1,1-0.3,1.4c-0.2,0.4-0.6,0.7-1,1c-0.4,0.2-0.9,0.3-1.5,0.3h-11.5
				V139.2z M-1262.9,154c-0.3,0.4-0.6,0.8-1.1,1c-0.5,0.2-1,0.4-1.6,0.4h-12.1v-5.9h12.1c0.6,0,1.1,0.1,1.6,0.4
				c0.5,0.3,0.8,0.6,1.1,1c0.3,0.4,0.4,1,0.4,1.6C-1262.5,153.1-1262.7,153.6-1262.9,154"/>
			<polygon class="st6" points="-1245.8,133.8 -1254.2,133.8 -1240.7,150.7 -1248.4,160.9 -1240.1,160.9 -1232.7,150.7 			"/>
			<polygon class="st5" points="-1234.2,142.7 -1227.7,133.8 -1220,133.8 -1230.4,147.6 			"/>
			<polygon class="st5" points="-1217.2,139.2 -1207.2,139.2 -1207.2,160.9 -1200,160.9 -1200,139.2 -1190.1,139.2 -1190.1,133.8 
				-1217.2,133.8 			"/>
			<polygon class="st5" points="-1160.3,139.3 -1160.3,133.8 -1187,133.8 -1187,160.9 -1160.3,160.9 -1160.3,155.4 -1179.7,155.4 
				-1179.7,149.9 -1161.7,149.9 -1161.7,144.6 -1179.7,144.6 -1179.7,139.3 			"/>
		</g>
	</g>
</g>
<g>
	<g>
		<defs>
			<rect id="SVGID_9_" x="-1007.9" y="43.3" width="423.2" height="226.8"/>
		</defs>
		<clipPath id="SVGID_10_">
			<use xlink:href="#SVGID_9_"  style="overflow:visible;"/>
		</clipPath>
		<rect x="-1007.9" y="43.3" class="st7" width="423.2" height="226.8"/>
		<g class="st8">
			<defs>
				<rect id="SVGID_11_" x="-1007.9" y="43.3" width="423.2" height="226.8"/>
			</defs>
			<clipPath id="SVGID_12_">
				<use xlink:href="#SVGID_11_"  style="overflow:visible;"/>
			</clipPath>
			<path class="st9" d="M-765.5,171.5c-0.6-0.3-1.4-0.5-2.3-0.5c-0.9,0-1.6,0.2-2.3,0.5c-0.6,0.4-1.1,0.9-1.5,1.5
				c-0.4,0.6-0.5,1.4-0.5,2.3c0,0.9,0.2,1.6,0.5,2.3c0.4,0.6,0.9,1.1,1.5,1.5c0.6,0.4,1.4,0.5,2.3,0.5c0.9,0,1.6-0.2,2.3-0.5
				c0.6-0.4,1.1-0.9,1.5-1.5c0.4-0.6,0.5-1.4,0.5-2.3c0-0.9-0.2-1.7-0.5-2.3C-764.4,172.4-764.9,171.9-765.5,171.5 M-765.8,177.5
				c-0.5,0.5-1.1,0.8-2,0.8c-0.8,0-1.5-0.3-2-0.8c-0.5-0.5-0.7-1.3-0.7-2.1c0-0.9,0.2-1.6,0.7-2.2c0.5-0.5,1.1-0.8,2-0.8
				c0.9,0,1.5,0.3,2,0.8c0.5,0.5,0.7,1.3,0.7,2.2C-765.1,176.2-765.3,176.9-765.8,177.5"/>
			<polygon class="st9" points="-757.4,171.1 -757.4,179.5 -755.9,179.5 -755.9,173.5 -755.7,173.5 -755.7,173.6 -751.3,179.5 
				-749.5,179.5 -749.5,171.1 -751,171.1 -751,177.2 -751.2,177.2 -755.7,171.1 			"/>
			<path class="st9" d="M-736.9,175.5c-0.4-0.4-1-0.7-1.8-0.8l-1.8-0.4c-0.8-0.1-1.1-0.5-1.1-1c0-0.4,0.2-0.6,0.5-0.8
				c0.3-0.2,0.7-0.3,1.2-0.3c1.1,0,1.7,0.4,2,1.3h1.6c-0.1-0.8-0.4-1.4-1-1.8c-0.6-0.5-1.5-0.7-2.5-0.7c-1,0-1.8,0.2-2.4,0.7
				c-0.6,0.4-0.9,1-0.9,1.8c0,0.6,0.2,1.1,0.6,1.5c0.4,0.4,1,0.6,1.7,0.8l1.8,0.4c0.4,0.1,0.7,0.2,0.9,0.4c0.2,0.2,0.3,0.4,0.3,0.7
				c0,0.4-0.2,0.7-0.5,0.9c-0.3,0.2-0.7,0.3-1.3,0.3c-0.6,0-1.2-0.1-1.5-0.4c-0.4-0.2-0.6-0.6-0.7-1h-1.6c0.1,0.8,0.4,1.4,1.1,1.9
				c0.7,0.5,1.6,0.7,2.7,0.7c1.1,0,1.9-0.2,2.5-0.7c0.6-0.4,0.9-1.1,0.9-1.9C-736.3,176.4-736.5,175.9-736.9,175.5"/>
			<path class="st9" d="M-839.9,174.7l-1.8-0.4c-0.8-0.2-1.1-0.5-1.1-1c0-0.4,0.2-0.6,0.5-0.8c0.3-0.2,0.7-0.3,1.2-0.3
				c1.1,0,1.7,0.4,2,1.3h1.6c-0.1-0.8-0.4-1.4-1-1.8c-0.6-0.5-1.5-0.7-2.5-0.7c-1,0-1.8,0.2-2.4,0.7c-0.6,0.4-0.9,1-0.9,1.8
				c0,0.6,0.2,1.1,0.6,1.5c0.4,0.4,1,0.6,1.7,0.8l1.8,0.4c0.4,0.1,0.7,0.2,0.9,0.4c0.2,0.2,0.3,0.4,0.3,0.7c0,0.4-0.2,0.7-0.5,0.9
				c-0.3,0.2-0.7,0.3-1.3,0.3c-0.6,0-1.2-0.1-1.5-0.4c-0.4-0.2-0.6-0.6-0.7-1h-1.6c0.1,0.8,0.4,1.4,1.1,1.9c0.7,0.5,1.6,0.7,2.7,0.7
				c1.1,0,1.9-0.2,2.5-0.7c0.6-0.4,0.9-1.1,0.9-1.9c0-0.6-0.2-1.2-0.5-1.5C-838.5,175.1-839.1,174.9-839.9,174.7"/>
			<path class="st9" d="M-825.5,171.5c-0.6-0.3-1.4-0.5-2.3-0.5c-0.9,0-1.6,0.2-2.3,0.5c-0.6,0.4-1.1,0.9-1.5,1.5
				c-0.4,0.6-0.5,1.4-0.5,2.3c0,0.9,0.2,1.6,0.5,2.3c0.4,0.6,0.9,1.1,1.5,1.5c0.6,0.4,1.4,0.5,2.3,0.5c0.9,0,1.6-0.2,2.3-0.5
				c0.6-0.3,1.1-0.9,1.5-1.5c0.4-0.6,0.5-1.4,0.5-2.3c0-0.9-0.2-1.7-0.5-2.3C-824.3,172.4-824.8,171.9-825.5,171.5 M-825.7,177.5
				c-0.5,0.5-1.1,0.8-2,0.8c-0.8,0-1.5-0.3-2-0.8c-0.5-0.5-0.7-1.3-0.7-2.1c0-0.9,0.2-1.6,0.7-2.2c0.5-0.5,1.1-0.8,2-0.8
				c0.9,0,1.5,0.3,2,0.8c0.5,0.5,0.7,1.3,0.7,2.2C-825,176.2-825.3,176.9-825.7,177.5"/>
			<polygon class="st9" points="-815.8,171.1 -817.4,171.1 -817.4,179.5 -811.4,179.5 -811.4,178.1 -815.8,178.1 			"/>
			<path class="st9" d="M-803.8,177.6c-0.3-0.4-0.5-0.9-0.5-1.5v-5h-1.6v5.3c0,0.7,0.1,1.4,0.5,1.8c0.3,0.5,0.7,0.8,1.3,1
				c0.6,0.2,1.2,0.3,2,0.3c1.2,0,2.1-0.3,2.8-0.8c0.7-0.5,1-1.3,1-2.4v-5.3h-1.6v5c0,0.6-0.2,1.1-0.5,1.4c-0.3,0.4-0.9,0.6-1.6,0.6
				C-802.9,178.2-803.4,178-803.8,177.6"/>
			<polygon class="st9" points="-789.9,179.5 -788.4,179.5 -788.4,172.5 -785.6,172.5 -785.6,171.1 -792.7,171.1 -792.7,172.5 
				-789.9,172.5 			"/>
			<rect x="-779.7" y="171.1" class="st9" width="1.6" height="8.4"/>
			<path class="st9" d="M-848.9,133.8h-7.3l-19.3,15.2v5.9h19.5v6h7.1V133.8z M-867.5,149.4l11.4-9v9H-867.5z"/>
			<path class="st9" d="M-815.7,147.6c-1.1-0.5-2.4-0.7-3.8-0.8c1.1-0.1,2.1-0.4,2.9-0.7c1.2-0.5,2.1-1.3,2.7-2.2
				c0.6-1,0.9-2.1,0.9-3.5c0-2.1-0.7-3.7-2.2-4.9c-1.5-1.2-3.5-1.8-6.2-1.8h-20.5v27.1h20.5c2,0,3.7-0.3,5.1-0.9
				c1.4-0.6,2.5-1.4,3.3-2.5c0.8-1.1,1.1-2.4,1.1-4c0-1.4-0.3-2.5-1-3.6C-813.5,148.9-814.5,148.2-815.7,147.6 M-834.5,139.2h11.4
				c0.9,0,1.6,0.2,2.1,0.7c0.5,0.5,0.8,1.1,0.8,1.9c0,0.6-0.1,1-0.3,1.4c-0.2,0.4-0.6,0.7-1,1c-0.4,0.2-0.9,0.3-1.5,0.3h-11.5V139.2
				z M-819.7,154c-0.3,0.4-0.6,0.8-1.1,1c-0.5,0.2-1,0.4-1.6,0.4h-12.1v-5.9h12.1c0.6,0,1.1,0.1,1.6,0.4c0.5,0.3,0.8,0.6,1.1,1
				c0.3,0.4,0.4,1,0.4,1.6C-819.3,153.1-819.5,153.6-819.7,154"/>
			<polygon class="st10" points="-802.6,133.8 -811,133.8 -797.5,150.7 -805.2,160.9 -796.9,160.9 -789.5,150.7 			"/>
			<polygon class="st9" points="-791,142.7 -784.6,133.8 -776.8,133.8 -787.2,147.6 			"/>
			<polygon class="st9" points="-774,139.2 -764,139.2 -764,160.9 -756.8,160.9 -756.8,139.2 -746.9,139.2 -746.9,133.8 -774,133.8 
							"/>
			<polygon class="st9" points="-717.1,139.3 -717.1,133.8 -743.8,133.8 -743.8,160.9 -717.1,160.9 -717.1,155.4 -736.5,155.4 
				-736.5,149.9 -718.5,149.9 -718.5,144.6 -736.5,144.6 -736.5,139.3 			"/>
		</g>
	</g>
</g>
<g>
	<g>
		<defs>
			<rect id="SVGID_13_" x="-564.7" y="43.3" width="423.2" height="226.8"/>
		</defs>
		<clipPath id="SVGID_14_">
			<use xlink:href="#SVGID_13_"  style="overflow:visible;"/>
		</clipPath>
		<rect x="-564.7" y="43.3" class="st11" width="423.2" height="226.8"/>
		<g class="st12">
			<defs>
				<rect id="SVGID_15_" x="-564.7" y="43.3" width="423.2" height="226.8"/>
			</defs>
			<clipPath id="SVGID_16_">
				<use xlink:href="#SVGID_15_"  style="overflow:visible;"/>
			</clipPath>
			<path class="st13" d="M-322.3,171.5c-0.6-0.3-1.4-0.5-2.3-0.5c-0.9,0-1.6,0.2-2.3,0.5c-0.6,0.4-1.1,0.9-1.5,1.5
				c-0.4,0.6-0.5,1.4-0.5,2.3c0,0.9,0.2,1.6,0.5,2.3c0.4,0.6,0.9,1.1,1.5,1.5c0.6,0.4,1.4,0.5,2.3,0.5c0.9,0,1.6-0.2,2.3-0.5
				c0.6-0.4,1.1-0.9,1.5-1.5c0.4-0.6,0.5-1.4,0.5-2.3c0-0.9-0.2-1.7-0.5-2.3C-321.2,172.4-321.7,171.9-322.3,171.5 M-322.6,177.5
				c-0.5,0.5-1.1,0.8-2,0.8c-0.8,0-1.5-0.3-2-0.8c-0.5-0.5-0.7-1.3-0.7-2.1c0-0.9,0.2-1.6,0.7-2.2c0.5-0.5,1.1-0.8,2-0.8
				c0.9,0,1.5,0.3,2,0.8c0.5,0.5,0.7,1.3,0.7,2.2C-321.9,176.2-322.1,176.9-322.6,177.5"/>
			<polygon class="st13" points="-314.2,171.1 -314.2,179.5 -312.7,179.5 -312.7,173.5 -312.5,173.5 -312.5,173.6 -308.1,179.5 
				-306.3,179.5 -306.3,171.1 -307.8,171.1 -307.8,177.2 -308,177.2 -312.5,171.1 			"/>
			<path class="st13" d="M-293.7,175.5c-0.4-0.4-1-0.7-1.8-0.8l-1.8-0.4c-0.8-0.1-1.1-0.5-1.1-1c0-0.4,0.2-0.6,0.5-0.8
				c0.3-0.2,0.7-0.3,1.2-0.3c1.1,0,1.7,0.4,2,1.3h1.6c-0.1-0.8-0.4-1.4-1-1.8c-0.6-0.5-1.5-0.7-2.5-0.7c-1,0-1.8,0.2-2.4,0.7
				c-0.6,0.4-0.9,1-0.9,1.8c0,0.6,0.2,1.1,0.6,1.5c0.4,0.4,1,0.6,1.7,0.8l1.8,0.4c0.4,0.1,0.7,0.2,0.9,0.4c0.2,0.2,0.3,0.4,0.3,0.7
				c0,0.4-0.2,0.7-0.5,0.9c-0.3,0.2-0.7,0.3-1.3,0.3c-0.6,0-1.2-0.1-1.5-0.4c-0.4-0.2-0.6-0.6-0.7-1h-1.6c0.1,0.8,0.4,1.4,1.1,1.9
				c0.7,0.5,1.6,0.7,2.7,0.7c1.1,0,1.9-0.2,2.5-0.7c0.6-0.4,0.9-1.1,0.9-1.9C-293.2,176.4-293.3,175.9-293.7,175.5"/>
			<path class="st13" d="M-396.7,174.7l-1.8-0.4c-0.8-0.2-1.1-0.5-1.1-1c0-0.4,0.2-0.6,0.5-0.8c0.3-0.2,0.7-0.3,1.2-0.3
				c1.1,0,1.7,0.4,2,1.3h1.6c-0.1-0.8-0.4-1.4-1-1.8c-0.6-0.5-1.5-0.7-2.5-0.7c-1,0-1.8,0.2-2.4,0.7c-0.6,0.4-0.9,1-0.9,1.8
				c0,0.6,0.2,1.1,0.6,1.5c0.4,0.4,1,0.6,1.7,0.8l1.8,0.4c0.4,0.1,0.7,0.2,0.9,0.4c0.2,0.2,0.3,0.4,0.3,0.7c0,0.4-0.2,0.7-0.5,0.9
				c-0.3,0.2-0.7,0.3-1.3,0.3c-0.6,0-1.2-0.1-1.5-0.4c-0.4-0.2-0.6-0.6-0.7-1h-1.6c0.1,0.8,0.4,1.4,1.1,1.9c0.7,0.5,1.6,0.7,2.7,0.7
				c1.1,0,1.9-0.2,2.5-0.7c0.6-0.4,0.9-1.1,0.9-1.9c0-0.6-0.2-1.2-0.5-1.5C-395.3,175.1-395.9,174.9-396.7,174.7"/>
			<path class="st13" d="M-382.3,171.5c-0.6-0.3-1.4-0.5-2.3-0.5c-0.9,0-1.6,0.2-2.3,0.5c-0.6,0.4-1.1,0.9-1.5,1.5
				c-0.4,0.6-0.5,1.4-0.5,2.3c0,0.9,0.2,1.6,0.5,2.3c0.4,0.6,0.9,1.1,1.5,1.5c0.6,0.4,1.4,0.5,2.3,0.5c0.9,0,1.6-0.2,2.3-0.5
				c0.6-0.3,1.1-0.9,1.5-1.5c0.4-0.6,0.5-1.4,0.5-2.3c0-0.9-0.2-1.7-0.5-2.3C-381.1,172.4-381.6,171.9-382.3,171.5 M-382.5,177.5
				c-0.5,0.5-1.1,0.8-2,0.8c-0.8,0-1.5-0.3-2-0.8c-0.5-0.5-0.7-1.3-0.7-2.1c0-0.9,0.2-1.6,0.7-2.2c0.5-0.5,1.1-0.8,2-0.8
				c0.9,0,1.5,0.3,2,0.8c0.5,0.5,0.7,1.3,0.7,2.2C-381.8,176.2-382.1,176.9-382.5,177.5"/>
			<polygon class="st13" points="-372.6,171.1 -374.2,171.1 -374.2,179.5 -368.2,179.5 -368.2,178.1 -372.6,178.1 			"/>
			<path class="st13" d="M-360.6,177.6c-0.3-0.4-0.5-0.9-0.5-1.5v-5h-1.6v5.3c0,0.7,0.2,1.4,0.5,1.8c0.3,0.5,0.7,0.8,1.3,1
				c0.6,0.2,1.2,0.3,2,0.3c1.2,0,2.1-0.3,2.8-0.8c0.7-0.5,1-1.3,1-2.4v-5.3h-1.6v5c0,0.6-0.2,1.1-0.5,1.4c-0.3,0.4-0.9,0.6-1.6,0.6
				C-359.7,178.2-360.2,178-360.6,177.6"/>
			<polygon class="st13" points="-346.7,179.5 -345.2,179.5 -345.2,172.5 -342.4,172.5 -342.4,171.1 -349.5,171.1 -349.5,172.5 
				-346.7,172.5 			"/>
			<rect x="-336.5" y="171.1" class="st13" width="1.6" height="8.4"/>
			<path class="st13" d="M-405.7,133.8h-7.3l-19.3,15.2v5.9h19.5v6h7.1V133.8z M-424.3,149.4l11.4-9v9H-424.3z"/>
			<path class="st13" d="M-372.5,147.6c-1.1-0.5-2.4-0.7-3.8-0.8c1.1-0.1,2.1-0.4,2.9-0.7c1.2-0.5,2.1-1.3,2.7-2.2
				c0.6-1,0.9-2.1,0.9-3.5c0-2.1-0.7-3.7-2.2-4.9c-1.5-1.2-3.5-1.8-6.2-1.8h-20.5v27.1h20.5c2,0,3.7-0.3,5.1-0.9
				c1.4-0.6,2.5-1.4,3.3-2.5c0.8-1.1,1.1-2.4,1.1-4c0-1.4-0.3-2.5-1-3.6C-370.3,148.9-371.3,148.2-372.5,147.6 M-391.3,139.2h11.4
				c0.9,0,1.6,0.2,2.1,0.7c0.5,0.5,0.8,1.1,0.8,1.9c0,0.6-0.1,1-0.3,1.4c-0.2,0.4-0.6,0.7-1,1c-0.4,0.2-0.9,0.3-1.5,0.3h-11.5V139.2
				z M-376.5,154c-0.3,0.4-0.6,0.8-1.1,1c-0.5,0.2-1,0.4-1.6,0.4h-12.1v-5.9h12.1c0.6,0,1.1,0.1,1.6,0.4c0.5,0.3,0.8,0.6,1.1,1
				c0.3,0.4,0.4,1,0.4,1.6C-376.2,153.1-376.3,153.6-376.5,154"/>
			<polygon class="st13" points="-359.4,133.8 -367.8,133.8 -354.3,150.7 -362,160.9 -353.7,160.9 -346.3,150.7 			"/>
			<polygon class="st13" points="-347.8,142.7 -341.4,133.8 -333.6,133.8 -344,147.6 			"/>
			<polygon class="st13" points="-330.8,139.2 -320.8,139.2 -320.8,160.9 -313.6,160.9 -313.6,139.2 -303.7,139.2 -303.7,133.8 
				-330.8,133.8 			"/>
			<polygon class="st13" points="-273.9,139.3 -273.9,133.8 -300.6,133.8 -300.6,160.9 -273.9,160.9 -273.9,155.4 -293.3,155.4 
				-293.3,149.9 -275.4,149.9 -275.4,144.6 -293.3,144.6 -293.3,139.3 			"/>
		</g>
	</g>
</g>
<g>
	<g>
		<defs>
			<rect id="SVGID_17_" x="-50.1" y="-37.5" width="236.1" height="132.8"/>
		</defs>
		<clipPath id="SVGID_18_">
			<use xlink:href="#SVGID_17_"  style="overflow:visible;"/>
		</clipPath>
		<g class="st14">
			<defs>
				<rect id="SVGID_19_" x="-50.1" y="-37.5" width="236.1" height="132.8"/>
			</defs>
			<clipPath id="SVGID_20_">
				<use xlink:href="#SVGID_19_"  style="overflow:visible;"/>
			</clipPath>
			<path class="st15" d="M79.3,37.6c-0.4-0.2-0.8-0.3-1.3-0.3c-0.5,0-0.9,0.1-1.3,0.3c-0.4,0.2-0.6,0.5-0.8,0.9
				c-0.2,0.4-0.3,0.8-0.3,1.3c0,0.5,0.1,1,0.3,1.3c0.2,0.4,0.5,0.7,0.8,0.9c0.4,0.2,0.8,0.3,1.3,0.3c0.5,0,0.9-0.1,1.3-0.3
				c0.4-0.2,0.6-0.5,0.8-0.9c0.2-0.4,0.3-0.8,0.3-1.3c0-0.5-0.1-1-0.3-1.3C80,38.1,79.7,37.8,79.3,37.6 M79.2,41
				c-0.3,0.3-0.6,0.5-1.1,0.5c-0.5,0-0.8-0.2-1.1-0.5c-0.3-0.3-0.4-0.7-0.4-1.3c0-0.5,0.1-0.9,0.4-1.3c0.3-0.3,0.6-0.5,1.1-0.5
				c0.5,0,0.9,0.2,1.1,0.5c0.3,0.3,0.4,0.7,0.4,1.3C79.6,40.3,79.5,40.7,79.2,41"/>
			<polygon class="st15" points="83.9,37.3 83.9,42.2 84.7,42.2 84.7,38.7 84.8,38.7 84.8,38.8 87.3,42.2 88.3,42.2 88.3,37.3 
				87.4,37.3 87.4,40.9 87.3,40.9 84.8,37.3 			"/>
			<path class="st15" d="M95.3,39.9c-0.2-0.2-0.5-0.4-1-0.5l-1-0.2c-0.4-0.1-0.6-0.3-0.6-0.6c0-0.2,0.1-0.4,0.3-0.5
				c0.2-0.1,0.4-0.2,0.7-0.2c0.6,0,1,0.3,1.1,0.8h0.9c-0.1-0.4-0.2-0.8-0.6-1c-0.3-0.3-0.8-0.4-1.4-0.4c-0.6,0-1,0.1-1.3,0.4
				c-0.3,0.3-0.5,0.6-0.5,1c0,0.3,0.1,0.6,0.3,0.9c0.2,0.2,0.5,0.4,1,0.5l1,0.2c0.2,0.1,0.4,0.1,0.5,0.2c0.1,0.1,0.2,0.3,0.2,0.4
				c0,0.2-0.1,0.4-0.3,0.5c-0.2,0.1-0.4,0.2-0.7,0.2c-0.4,0-0.7-0.1-0.9-0.2c-0.2-0.1-0.3-0.3-0.4-0.6h-0.9c0,0.5,0.2,0.8,0.6,1.1
				c0.4,0.3,0.9,0.4,1.5,0.4c0.6,0,1.1-0.1,1.4-0.4c0.3-0.3,0.5-0.6,0.5-1.1C95.6,40.4,95.5,40.1,95.3,39.9"/>
			<path class="st15" d="M37.8,39.4l-1-0.2c-0.4-0.1-0.6-0.3-0.6-0.6c0-0.2,0.1-0.4,0.3-0.5c0.2-0.1,0.4-0.2,0.7-0.2
				c0.6,0,1,0.3,1.1,0.8h0.9c-0.1-0.4-0.2-0.8-0.6-1c-0.3-0.3-0.8-0.4-1.4-0.4c-0.6,0-1,0.1-1.3,0.4c-0.3,0.3-0.5,0.6-0.5,1
				c0,0.4,0.1,0.6,0.3,0.9c0.2,0.2,0.5,0.4,1,0.5l1,0.2c0.2,0.1,0.4,0.1,0.5,0.2c0.1,0.1,0.2,0.3,0.2,0.4c0,0.2-0.1,0.4-0.3,0.5
				c-0.2,0.1-0.4,0.2-0.7,0.2c-0.4,0-0.7-0.1-0.9-0.2c-0.2-0.1-0.3-0.3-0.4-0.6h-0.9c0,0.5,0.2,0.8,0.6,1.1c0.4,0.3,0.9,0.4,1.5,0.4
				c0.6,0,1.1-0.1,1.4-0.4c0.3-0.3,0.5-0.6,0.5-1.1c0-0.4-0.1-0.7-0.3-0.9C38.6,39.7,38.3,39.5,37.8,39.4"/>
			<path class="st15" d="M45.9,37.6c-0.4-0.2-0.8-0.3-1.3-0.3c-0.5,0-0.9,0.1-1.3,0.3c-0.4,0.2-0.6,0.5-0.8,0.9
				c-0.2,0.4-0.3,0.8-0.3,1.3c0,0.5,0.1,1,0.3,1.3c0.2,0.4,0.5,0.7,0.8,0.9c0.4,0.2,0.8,0.3,1.3,0.3c0.5,0,0.9-0.1,1.3-0.3
				c0.4-0.2,0.6-0.5,0.8-0.9c0.2-0.4,0.3-0.8,0.3-1.3c0-0.5-0.1-1-0.3-1.3C46.5,38.1,46.2,37.8,45.9,37.6 M45.7,41
				c-0.3,0.3-0.6,0.5-1.1,0.5c-0.5,0-0.8-0.2-1.1-0.5c-0.3-0.3-0.4-0.7-0.4-1.3c0-0.5,0.1-0.9,0.4-1.3c0.3-0.3,0.6-0.5,1.1-0.5
				c0.5,0,0.9,0.2,1.1,0.5c0.3,0.3,0.4,0.7,0.4,1.3C46.1,40.3,46,40.7,45.7,41"/>
			<polygon class="st15" points="51.3,37.3 50.4,37.3 50.4,42.2 53.7,42.2 53.7,41.4 51.3,41.4 			"/>
			<path class="st15" d="M58,41.1c-0.2-0.2-0.3-0.5-0.3-0.9v-2.9h-0.9v3.1c0,0.4,0.1,0.8,0.3,1.1c0.2,0.3,0.4,0.5,0.7,0.6
				c0.3,0.1,0.7,0.2,1.1,0.2c0.7,0,1.2-0.2,1.5-0.5c0.4-0.3,0.6-0.8,0.6-1.4v-3.1h-0.9v2.9c0,0.3-0.1,0.6-0.3,0.8
				c-0.2,0.2-0.5,0.3-0.9,0.3C58.5,41.4,58.2,41.3,58,41.1"/>
			<polygon class="st15" points="65.7,42.2 66.6,42.2 66.6,38.1 68.1,38.1 68.1,37.3 64.2,37.3 64.2,38.1 65.7,38.1 			"/>
			<rect x="71.4" y="37.3" class="st15" width="0.9" height="4.9"/>
			<path class="st15" d="M32.8,15.5h-4.1l-10.8,8.9v3.4h10.9v3.5h4V15.5z M22.4,24.6l6.4-5.3v5.3H22.4z"/>
			<path class="st15" d="M51.3,23.6c-0.6-0.3-1.3-0.4-2.1-0.5c0.6-0.1,1.2-0.2,1.6-0.4c0.7-0.3,1.2-0.7,1.5-1.3
				c0.4-0.6,0.5-1.2,0.5-2c0-1.2-0.4-2.2-1.2-2.9c-0.8-0.7-2-1-3.4-1H36.8v15.9h11.4c1.1,0,2.1-0.2,2.9-0.5c0.8-0.3,1.4-0.8,1.8-1.5
				c0.4-0.6,0.6-1.4,0.6-2.3c0-0.8-0.2-1.5-0.6-2.1C52.6,24.3,52,23.9,51.3,23.6 M40.8,18.7h6.4c0.5,0,0.9,0.1,1.2,0.4
				c0.3,0.3,0.4,0.6,0.4,1.1c0,0.3-0.1,0.6-0.2,0.8c-0.1,0.2-0.3,0.4-0.5,0.6c-0.2,0.1-0.5,0.2-0.8,0.2h-6.4V18.7z M49.1,27.3
				c-0.1,0.3-0.3,0.4-0.6,0.6c-0.3,0.1-0.5,0.2-0.9,0.2h-6.8v-3.5h6.8c0.3,0,0.6,0.1,0.9,0.2c0.3,0.1,0.5,0.4,0.6,0.6
				c0.1,0.3,0.2,0.6,0.2,0.9C49.3,26.8,49.2,27.1,49.1,27.3"/>
			<polygon class="st15" points="58.6,15.5 53.9,15.5 61.5,25.4 57.2,31.3 61.8,31.3 65.9,25.4 			"/>
			<polygon class="st15" points="65.1,20.7 68.7,15.5 73,15.5 67.2,23.6 			"/>
			<polygon class="st15" points="74.6,18.7 80.2,18.7 80.2,31.3 84.2,31.3 84.2,18.7 89.7,18.7 89.7,15.5 74.6,15.5 			"/>
			<polygon class="st15" points="106.4,18.7 106.4,15.5 91.5,15.5 91.5,31.3 106.4,31.3 106.4,28.1 95.5,28.1 95.5,24.9 105.5,24.9 
				105.5,21.8 95.5,21.8 95.5,18.7 			"/>
		</g>
	</g>
</g>
<g>
	<g>
		<defs>
			<rect id="SVGID_21_" x="321.7" y="43.3" width="423.2" height="226.8"/>
		</defs>
		<clipPath id="SVGID_22_">
			<use xlink:href="#SVGID_21_"  style="overflow:visible;"/>
		</clipPath>
		<g class="st16">
			<defs>
				<rect id="SVGID_23_" x="321.7" y="43.3" width="423.2" height="226.8"/>
			</defs>
			<clipPath id="SVGID_24_">
				<use xlink:href="#SVGID_23_"  style="overflow:visible;"/>
			</clipPath>
			<path class="st17" d="M564.1,171.5c-0.6-0.3-1.4-0.5-2.3-0.5c-0.9,0-1.6,0.2-2.3,0.5c-0.6,0.4-1.1,0.9-1.5,1.5
				c-0.4,0.6-0.5,1.4-0.5,2.3c0,0.9,0.2,1.6,0.5,2.3c0.4,0.6,0.9,1.1,1.5,1.5c0.6,0.4,1.4,0.5,2.3,0.5c0.9,0,1.6-0.2,2.3-0.5
				c0.6-0.4,1.1-0.9,1.5-1.5c0.4-0.6,0.5-1.4,0.5-2.3c0-0.9-0.2-1.7-0.5-2.3C565.2,172.4,564.7,171.9,564.1,171.5 M563.8,177.5
				c-0.5,0.5-1.1,0.8-2,0.8c-0.8,0-1.5-0.3-2-0.8c-0.5-0.5-0.7-1.3-0.7-2.1c0-0.9,0.2-1.6,0.7-2.2c0.5-0.5,1.1-0.8,2-0.8
				c0.9,0,1.5,0.3,2,0.8c0.5,0.5,0.7,1.3,0.7,2.2C564.5,176.2,564.3,176.9,563.8,177.5"/>
			<polygon class="st17" points="572.2,171.1 572.2,179.5 573.7,179.5 573.7,173.5 573.9,173.5 573.9,173.6 578.3,179.5 
				580.1,179.5 580.1,171.1 578.6,171.1 578.6,177.2 578.4,177.2 573.9,171.1 			"/>
			<path class="st17" d="M592.7,175.5c-0.4-0.4-1-0.7-1.8-0.8l-1.8-0.4c-0.8-0.1-1.1-0.5-1.1-1c0-0.4,0.2-0.6,0.5-0.8
				c0.3-0.2,0.7-0.3,1.2-0.3c1.1,0,1.7,0.4,2,1.3h1.6c-0.1-0.8-0.4-1.4-1-1.8c-0.6-0.5-1.5-0.7-2.5-0.7c-1,0-1.8,0.2-2.4,0.7
				c-0.6,0.4-0.9,1-0.9,1.8c0,0.6,0.2,1.1,0.6,1.5c0.4,0.4,1,0.6,1.7,0.8l1.8,0.4c0.4,0.1,0.7,0.2,0.9,0.4c0.2,0.2,0.3,0.4,0.3,0.7
				c0,0.4-0.2,0.7-0.5,0.9c-0.3,0.2-0.7,0.3-1.3,0.3c-0.6,0-1.2-0.1-1.5-0.4c-0.4-0.2-0.6-0.6-0.7-1h-1.6c0.1,0.8,0.4,1.4,1.1,1.9
				c0.7,0.5,1.6,0.7,2.7,0.7c1.1,0,1.9-0.2,2.5-0.7c0.6-0.4,0.9-1.1,0.9-1.9C593.2,176.4,593.1,175.9,592.7,175.5"/>
			<path class="st17" d="M489.7,174.7l-1.8-0.4c-0.8-0.2-1.1-0.5-1.1-1c0-0.4,0.2-0.6,0.5-0.8c0.3-0.2,0.7-0.3,1.2-0.3
				c1.1,0,1.7,0.4,2,1.3h1.6c-0.1-0.8-0.4-1.4-1-1.8c-0.6-0.5-1.5-0.7-2.5-0.7c-1,0-1.8,0.2-2.4,0.7c-0.6,0.4-0.9,1-0.9,1.8
				c0,0.6,0.2,1.1,0.6,1.5c0.4,0.4,1,0.6,1.7,0.8l1.8,0.4c0.4,0.1,0.7,0.2,0.9,0.4c0.2,0.2,0.3,0.4,0.3,0.7c0,0.4-0.2,0.7-0.5,0.9
				c-0.3,0.2-0.7,0.3-1.3,0.3c-0.6,0-1.2-0.1-1.5-0.4c-0.4-0.2-0.6-0.6-0.7-1h-1.6c0.1,0.8,0.4,1.4,1.1,1.9c0.7,0.5,1.6,0.7,2.7,0.7
				c1.1,0,1.9-0.2,2.5-0.7c0.6-0.4,0.9-1.1,0.9-1.9c0-0.6-0.2-1.2-0.5-1.5C491.1,175.1,490.5,174.9,489.7,174.7"/>
			<path class="st17" d="M504.1,171.5c-0.6-0.3-1.4-0.5-2.3-0.5c-0.9,0-1.6,0.2-2.3,0.5c-0.6,0.4-1.1,0.9-1.5,1.5
				c-0.4,0.6-0.5,1.4-0.5,2.3c0,0.9,0.2,1.6,0.5,2.3c0.4,0.6,0.9,1.1,1.5,1.5c0.6,0.4,1.4,0.5,2.3,0.5c0.9,0,1.6-0.2,2.3-0.5
				c0.6-0.3,1.1-0.9,1.5-1.5c0.4-0.6,0.5-1.4,0.5-2.3c0-0.9-0.2-1.7-0.5-2.3C505.3,172.4,504.8,171.9,504.1,171.5 M503.8,177.5
				c-0.5,0.5-1.1,0.8-2,0.8c-0.8,0-1.5-0.3-2-0.8c-0.5-0.5-0.7-1.3-0.7-2.1c0-0.9,0.2-1.6,0.7-2.2c0.5-0.5,1.1-0.8,2-0.8
				c0.9,0,1.5,0.3,2,0.8c0.5,0.5,0.7,1.3,0.7,2.2C504.6,176.2,504.3,176.9,503.8,177.5"/>
			<polygon class="st17" points="513.8,171.1 512.2,171.1 512.2,179.5 518.2,179.5 518.2,178.1 513.8,178.1 			"/>
			<path class="st17" d="M525.8,177.6c-0.3-0.4-0.5-0.9-0.5-1.5v-5h-1.6v5.3c0,0.7,0.2,1.4,0.5,1.8c0.3,0.5,0.7,0.8,1.3,1
				c0.6,0.2,1.2,0.3,2,0.3c1.2,0,2.1-0.3,2.8-0.8c0.7-0.5,1-1.3,1-2.4v-5.3h-1.6v5c0,0.6-0.2,1.1-0.5,1.4c-0.3,0.4-0.9,0.6-1.6,0.6
				C526.7,178.2,526.2,178,525.8,177.6"/>
			<polygon class="st17" points="539.7,179.5 541.2,179.5 541.2,172.5 544,172.5 544,171.1 536.9,171.1 536.9,172.5 539.7,172.5 			
				"/>
			<rect x="549.9" y="171.1" class="st17" width="1.6" height="8.4"/>
			<path class="st17" d="M480.7,133.8h-7.3L454,149v5.9h19.5v6h7.1V133.8z M462.1,149.4l11.4-9v9H462.1z"/>
			<path class="st17" d="M513.8,147.6c-1.1-0.5-2.4-0.7-3.8-0.8c1.1-0.1,2.1-0.4,2.9-0.7c1.2-0.5,2.1-1.3,2.7-2.2
				c0.6-1,0.9-2.1,0.9-3.5c0-2.1-0.7-3.7-2.2-4.9c-1.5-1.2-3.5-1.8-6.2-1.8h-20.5v27.1h20.5c2,0,3.7-0.3,5.1-0.9
				c1.4-0.6,2.5-1.4,3.3-2.5c0.8-1.1,1.1-2.4,1.1-4c0-1.4-0.3-2.5-1-3.6C516.1,148.9,515.1,148.2,513.8,147.6 M495.1,139.2h11.4
				c0.9,0,1.6,0.2,2.1,0.7c0.5,0.5,0.8,1.1,0.8,1.9c0,0.6-0.1,1-0.3,1.4c-0.2,0.4-0.6,0.7-1,1c-0.4,0.2-0.9,0.3-1.5,0.3h-11.5V139.2
				z M509.9,154c-0.3,0.4-0.6,0.8-1.1,1c-0.5,0.2-1,0.4-1.6,0.4h-12.1v-5.9h12.1c0.6,0,1.1,0.1,1.6,0.4c0.5,0.3,0.8,0.6,1.1,1
				c0.3,0.4,0.4,1,0.4,1.6C510.2,153.1,510.1,153.6,509.9,154"/>
			<polygon class="st17" points="527,133.8 518.5,133.8 532,150.7 524.4,160.9 532.7,160.9 540.1,150.7 			"/>
			<polygon class="st17" points="538.6,142.7 545,133.8 552.8,133.8 542.4,147.6 			"/>
			<polygon class="st17" points="555.6,139.2 565.5,139.2 565.5,160.9 572.8,160.9 572.8,139.2 582.7,139.2 582.7,133.8 
				555.6,133.8 			"/>
			<polygon class="st17" points="612.5,139.3 612.5,133.8 585.8,133.8 585.8,160.9 612.5,160.9 612.5,155.4 593.1,155.4 
				593.1,149.9 611,149.9 611,144.6 593.1,144.6 593.1,139.3 			"/>
		</g>
	</g>
</g>
<g>
	<g>
		<defs>
			<rect id="SVGID_25_" x="764.9" y="43.3" width="423.2" height="226.8"/>
		</defs>
		<clipPath id="SVGID_26_">
			<use xlink:href="#SVGID_25_"  style="overflow:visible;"/>
		</clipPath>
		<path class="st18" d="M880.9,141.9h-8l-21,16.6v6.4h21.2v6.5h7.8V141.9z M860.7,159l12.5-9.8v9.8H860.7z"/>
		<g class="st19">
			<defs>
				<rect id="SVGID_27_" x="764.9" y="43.3" width="423.2" height="226.8"/>
			</defs>
			<clipPath id="SVGID_28_">
				<use xlink:href="#SVGID_27_"  style="overflow:visible;"/>
			</clipPath>
			<path class="st20" d="M917.1,157c-1.2-0.5-2.6-0.7-4.1-0.8c1.2-0.2,2.3-0.4,3.2-0.8c1.3-0.6,2.3-1.4,3-2.4c0.7-1.1,1-2.3,1-3.8
				c0-2.3-0.8-4-2.4-5.3c-1.6-1.3-3.9-1.9-6.7-1.9h-22.3v29.6H911c2.2,0,4-0.3,5.6-1c1.5-0.6,2.7-1.6,3.6-2.8
				c0.8-1.2,1.2-2.6,1.2-4.3c0-1.5-0.4-2.8-1.1-3.9C919.6,158.4,918.5,157.6,917.1,157 M896.6,147.9h12.5c1,0,1.7,0.3,2.3,0.8
				c0.6,0.5,0.8,1.2,0.8,2c0,0.6-0.1,1.1-0.4,1.6c-0.2,0.4-0.6,0.8-1.1,1c-0.5,0.2-1,0.4-1.6,0.4h-12.5V147.9z M912.8,164
				c-0.3,0.5-0.7,0.8-1.2,1.1c-0.5,0.3-1.1,0.4-1.7,0.4h-13.2v-6.5h13.2c0.7,0,1.2,0.1,1.7,0.4c0.5,0.3,0.9,0.7,1.2,1.1
				c0.3,0.5,0.4,1.1,0.4,1.8C913.2,163,913,163.5,912.8,164"/>
			<polygon class="st21" points="931.4,141.9 922.2,141.9 937,160.4 928.6,171.5 937.7,171.5 945.7,160.4 			"/>
			<polygon class="st20" points="944.1,151.7 951.1,141.9 959.6,141.9 948.2,157 			"/>
			<path class="st20" d="M1063.4,161c-0.8-0.4-1.8-0.7-2.9-0.7c-1.1,0-2.1,0.2-2.9,0.7c-0.8,0.5-1.5,1.1-1.9,1.9
				c-0.5,0.8-0.7,1.8-0.7,3c0,1.1,0.2,2.1,0.7,3c0.5,0.8,1.1,1.5,1.9,1.9c0.8,0.5,1.8,0.7,2.9,0.7c1.1,0,2.1-0.2,2.9-0.7
				c0.8-0.5,1.5-1.1,1.9-1.9c0.5-0.8,0.7-1.8,0.7-3c0-1.1-0.2-2.2-0.7-3C1064.8,162.1,1064.2,161.4,1063.4,161 M1063,168.7
				c-0.6,0.7-1.5,1-2.6,1c-1.1,0-2-0.4-2.6-1c-0.6-0.7-0.9-1.6-0.9-2.8c0-1.2,0.3-2.1,0.9-2.8c0.6-0.7,1.5-1,2.6-1
				c1.1,0,2,0.4,2.6,1c0.6,0.7,0.9,1.6,0.9,2.8C1063.9,167,1063.6,168,1063,168.7"/>
			<polygon class="st20" points="1073.8,160.5 1073.8,171.3 1075.7,171.3 1075.7,163.6 1076,163.6 1076,163.7 1081.8,171.3 
				1084,171.3 1084,160.5 1082.1,160.5 1082.1,168.3 1081.8,168.3 1076,160.5 			"/>
			<path class="st20" d="M1100.4,166.2c-0.5-0.5-1.2-0.9-2.3-1.1l-2.4-0.5c-1-0.2-1.5-0.7-1.5-1.4c0-0.5,0.2-0.8,0.6-1.1
				c0.4-0.2,0.9-0.4,1.5-0.4c1.4,0,2.2,0.6,2.5,1.7h2.1c-0.1-1-0.6-1.8-1.3-2.3c-0.8-0.6-1.9-0.9-3.2-0.9c-1.3,0-2.3,0.3-3.1,0.8
				c-0.7,0.6-1.1,1.3-1.1,2.3c0,0.8,0.2,1.4,0.7,1.9c0.5,0.5,1.2,0.8,2.2,1.1l2.3,0.5c0.6,0.1,0.9,0.3,1.2,0.5
				c0.3,0.2,0.4,0.6,0.4,1c0,0.5-0.2,0.9-0.6,1.2c-0.4,0.2-1,0.4-1.7,0.4c-0.8,0-1.5-0.2-2-0.5c-0.5-0.3-0.7-0.8-0.9-1.3h-2.1
				c0.1,1,0.6,1.9,1.4,2.5c0.9,0.6,2,1,3.5,1c1.4,0,2.5-0.3,3.3-0.9c0.8-0.6,1.1-1.4,1.1-2.4
				C1101.1,167.3,1100.8,166.7,1100.4,166.2"/>
			<path class="st20" d="M967.1,165.1l-2.4-0.5c-1-0.2-1.5-0.7-1.5-1.4c0-0.5,0.2-0.8,0.6-1.1c0.4-0.2,0.9-0.4,1.5-0.4
				c1.4,0,2.2,0.6,2.5,1.7h2.1c-0.1-1-0.6-1.8-1.3-2.3c-0.8-0.6-1.9-0.9-3.2-0.9c-1.3,0-2.3,0.3-3.1,0.8c-0.8,0.6-1.1,1.3-1.1,2.3
				c0,0.8,0.2,1.4,0.7,1.9c0.5,0.5,1.2,0.8,2.2,1.1l2.3,0.5c0.5,0.1,0.9,0.3,1.2,0.5c0.3,0.2,0.4,0.6,0.4,1c0,0.5-0.2,0.9-0.6,1.2
				c-0.4,0.2-1,0.4-1.7,0.4c-0.8,0-1.5-0.2-2-0.5c-0.5-0.3-0.8-0.8-0.9-1.3h-2.1c0.1,1,0.6,1.9,1.4,2.5c0.9,0.6,2,1,3.5,1
				c1.4,0,2.5-0.3,3.3-0.9c0.8-0.6,1.1-1.4,1.1-2.4c0-0.8-0.2-1.5-0.7-2C968.9,165.7,968.2,165.3,967.1,165.1"/>
			<path class="st20" d="M985.8,161c-0.8-0.4-1.8-0.7-2.9-0.7c-1.1,0-2.1,0.2-2.9,0.7c-0.8,0.5-1.5,1.1-1.9,1.9
				c-0.5,0.8-0.7,1.8-0.7,3c0,1.1,0.2,2.1,0.7,3c0.5,0.8,1.1,1.5,1.9,1.9c0.8,0.5,1.8,0.7,2.9,0.7c1.1,0,2.1-0.2,2.9-0.7
				c0.8-0.5,1.5-1.1,1.9-1.9c0.5-0.8,0.7-1.8,0.7-3c0-1.2-0.2-2.2-0.7-3C987.3,162.1,986.6,161.4,985.8,161 M985.4,168.7
				c-0.6,0.7-1.5,1-2.6,1s-2-0.4-2.6-1c-0.6-0.7-0.9-1.6-0.9-2.8c0-1.2,0.3-2.1,0.9-2.8c0.6-0.7,1.5-1,2.6-1c1.1,0,2,0.4,2.6,1
				c0.6,0.7,0.9,1.6,0.9,2.8C986.3,167,986,168,985.4,168.7"/>
			<polygon class="st20" points="998.3,160.5 996.2,160.5 996.2,171.3 1004,171.3 1004,169.6 998.3,169.6 			"/>
			<path class="st20" d="M1013.8,168.9c-0.4-0.5-0.7-1.1-0.7-1.9v-6.5h-2.1v6.8c0,1,0.2,1.7,0.6,2.4c0.4,0.6,0.9,1.1,1.6,1.4
				c0.7,0.3,1.6,0.4,2.5,0.4c1.5,0,2.7-0.3,3.6-1c0.8-0.7,1.3-1.7,1.3-3.1v-6.9h-2v6.5c0,0.8-0.2,1.4-0.6,1.9
				c-0.4,0.5-1.1,0.7-2.1,0.7C1015,169.6,1014.3,169.3,1013.8,168.9"/>
			<polygon class="st20" points="1031.7,171.3 1033.7,171.3 1033.7,162.2 1037.3,162.2 1037.3,160.5 1028.1,160.5 1028.1,162.2 
				1031.7,162.2 			"/>
			<rect x="1044.9" y="160.5" class="st20" width="2.1" height="10.8"/>
		</g>
	</g>
</g>
<g>
	<g>
		<defs>
			<rect id="SVGID_29_" x="1208.1" y="43.3" width="423.2" height="226.8"/>
		</defs>
		<clipPath id="SVGID_30_">
			<use xlink:href="#SVGID_29_"  style="overflow:visible;"/>
		</clipPath>
		<rect x="1208.1" y="43.3" class="st22" width="423.2" height="226.8"/>
		<path class="st23" d="M1324.1,141.9h-8l-21,16.6v6.4h21.2v6.5h7.8V141.9z M1303.9,159l12.5-9.8v9.8H1303.9z"/>
		<g class="st24">
			<defs>
				<rect id="SVGID_31_" x="1208.1" y="43.3" width="423.2" height="226.8"/>
			</defs>
			<clipPath id="SVGID_32_">
				<use xlink:href="#SVGID_31_"  style="overflow:visible;"/>
			</clipPath>
			<path class="st25" d="M1360.3,157c-1.2-0.5-2.6-0.7-4.1-0.8c1.2-0.2,2.3-0.4,3.2-0.8c1.3-0.6,2.3-1.4,3-2.4c0.7-1.1,1-2.3,1-3.8
				c0-2.3-0.8-4-2.4-5.3c-1.6-1.3-3.9-1.9-6.7-1.9h-22.3v29.6h22.3c2.2,0,4-0.3,5.6-1c1.5-0.6,2.7-1.6,3.6-2.8
				c0.8-1.2,1.2-2.6,1.2-4.3c0-1.5-0.4-2.8-1.1-3.9C1362.8,158.4,1361.7,157.6,1360.3,157 M1339.8,147.9h12.5c1,0,1.7,0.3,2.3,0.8
				c0.6,0.5,0.8,1.2,0.8,2c0,0.6-0.1,1.1-0.4,1.6c-0.2,0.4-0.6,0.8-1.1,1c-0.5,0.2-1,0.4-1.6,0.4h-12.5V147.9z M1356,164
				c-0.3,0.5-0.7,0.8-1.2,1.1c-0.5,0.3-1.1,0.4-1.7,0.4h-13.2v-6.5h13.2c0.7,0,1.2,0.1,1.7,0.4c0.5,0.3,0.9,0.7,1.2,1.1
				c0.3,0.5,0.4,1.1,0.4,1.8C1356.4,163,1356.2,163.5,1356,164"/>
			<polygon class="st26" points="1374.6,141.9 1365.4,141.9 1380.2,160.4 1371.8,171.5 1380.9,171.5 1388.9,160.4 			"/>
			<polygon class="st25" points="1387.3,151.7 1394.3,141.9 1402.8,141.9 1391.4,157 			"/>
			<path class="st25" d="M1506.5,161c-0.8-0.4-1.8-0.7-2.9-0.7c-1.1,0-2.1,0.2-2.9,0.7c-0.8,0.5-1.5,1.1-1.9,1.9
				c-0.5,0.8-0.7,1.8-0.7,3c0,1.1,0.2,2.1,0.7,3c0.5,0.8,1.1,1.5,1.9,1.9c0.8,0.5,1.8,0.7,2.9,0.7c1.1,0,2.1-0.2,2.9-0.7
				c0.8-0.5,1.5-1.1,1.9-1.9c0.5-0.8,0.7-1.8,0.7-3c0-1.1-0.2-2.2-0.7-3C1508,162.1,1507.4,161.4,1506.5,161 M1506.2,168.7
				c-0.6,0.7-1.5,1-2.6,1c-1.1,0-2-0.4-2.6-1c-0.6-0.7-0.9-1.6-0.9-2.8c0-1.2,0.3-2.1,0.9-2.8c0.6-0.7,1.5-1,2.6-1
				c1.1,0,2,0.4,2.6,1c0.6,0.7,0.9,1.6,0.9,2.8C1507.1,167,1506.8,168,1506.2,168.7"/>
			<polygon class="st25" points="1517,160.5 1517,171.3 1518.9,171.3 1518.9,163.6 1519.2,163.6 1519.2,163.7 1525,171.3 
				1527.2,171.3 1527.2,160.5 1525.3,160.5 1525.3,168.3 1525,168.3 1519.2,160.5 			"/>
			<path class="st25" d="M1543.5,166.2c-0.5-0.5-1.2-0.9-2.3-1.1l-2.4-0.5c-1-0.2-1.5-0.7-1.5-1.4c0-0.5,0.2-0.8,0.6-1.1
				c0.4-0.2,0.9-0.4,1.5-0.4c1.4,0,2.2,0.6,2.5,1.7h2.1c-0.1-1-0.6-1.8-1.3-2.3c-0.8-0.6-1.9-0.9-3.2-0.9c-1.3,0-2.3,0.3-3.1,0.8
				c-0.7,0.6-1.1,1.3-1.1,2.3c0,0.8,0.2,1.4,0.7,1.9c0.5,0.5,1.2,0.8,2.2,1.1l2.3,0.5c0.6,0.1,0.9,0.3,1.2,0.5
				c0.3,0.2,0.4,0.6,0.4,1c0,0.5-0.2,0.9-0.6,1.2c-0.4,0.2-1,0.4-1.7,0.4c-0.8,0-1.5-0.2-2-0.5c-0.5-0.3-0.7-0.8-0.9-1.3h-2.1
				c0.1,1,0.6,1.9,1.4,2.5c0.9,0.6,2,1,3.5,1c1.4,0,2.5-0.3,3.3-0.9c0.8-0.6,1.1-1.4,1.1-2.4C1544.3,167.3,1544,166.7,1543.5,166.2"
				/>
			<path class="st25" d="M1410.3,165.1l-2.4-0.5c-1-0.2-1.5-0.7-1.5-1.4c0-0.5,0.2-0.8,0.6-1.1c0.4-0.2,0.9-0.4,1.5-0.4
				c1.4,0,2.2,0.6,2.5,1.7h2.1c-0.1-1-0.6-1.8-1.3-2.3c-0.8-0.6-1.9-0.9-3.2-0.9c-1.3,0-2.3,0.3-3.1,0.8c-0.8,0.6-1.1,1.3-1.1,2.3
				c0,0.8,0.2,1.4,0.7,1.9c0.5,0.5,1.2,0.8,2.2,1.1l2.3,0.5c0.5,0.1,0.9,0.3,1.2,0.5c0.3,0.2,0.4,0.6,0.4,1c0,0.5-0.2,0.9-0.6,1.2
				c-0.4,0.2-1,0.4-1.7,0.4c-0.8,0-1.5-0.2-2-0.5c-0.5-0.3-0.8-0.8-0.9-1.3h-2.1c0.1,1,0.6,1.9,1.4,2.5c0.9,0.6,2,1,3.5,1
				c1.4,0,2.5-0.3,3.3-0.9c0.8-0.6,1.1-1.4,1.1-2.4c0-0.8-0.2-1.5-0.7-2C1412.1,165.7,1411.4,165.3,1410.3,165.1"/>
			<path class="st25" d="M1429,161c-0.8-0.4-1.8-0.7-2.9-0.7c-1.1,0-2.1,0.2-2.9,0.7c-0.8,0.5-1.5,1.1-1.9,1.9
				c-0.5,0.8-0.7,1.8-0.7,3c0,1.1,0.2,2.1,0.7,3c0.5,0.8,1.1,1.5,1.9,1.9c0.8,0.5,1.8,0.7,2.9,0.7c1.1,0,2.1-0.2,2.9-0.7
				c0.8-0.5,1.5-1.1,1.9-1.9c0.5-0.8,0.7-1.8,0.7-3c0-1.2-0.2-2.2-0.7-3C1430.4,162.1,1429.8,161.4,1429,161 M1428.6,168.7
				c-0.6,0.7-1.5,1-2.6,1c-1.1,0-2-0.4-2.6-1c-0.6-0.7-0.9-1.6-0.9-2.8c0-1.2,0.3-2.1,0.9-2.8c0.6-0.7,1.5-1,2.6-1
				c1.1,0,2,0.4,2.6,1c0.6,0.7,0.9,1.6,0.9,2.8C1429.5,167,1429.2,168,1428.6,168.7"/>
			<polygon class="st25" points="1441.5,160.5 1439.4,160.5 1439.4,171.3 1447.2,171.3 1447.2,169.6 1441.5,169.6 			"/>
			<path class="st25" d="M1457,168.9c-0.4-0.5-0.7-1.1-0.7-1.9v-6.5h-2.1v6.8c0,1,0.2,1.7,0.6,2.4c0.4,0.6,0.9,1.1,1.6,1.4
				c0.7,0.3,1.6,0.4,2.5,0.4c1.5,0,2.7-0.3,3.6-1c0.8-0.7,1.3-1.7,1.3-3.1v-6.9h-2v6.5c0,0.8-0.2,1.4-0.6,1.9
				c-0.4,0.5-1.1,0.7-2.1,0.7C1458.2,169.6,1457.5,169.3,1457,168.9"/>
			<polygon class="st25" points="1474.9,171.3 1476.9,171.3 1476.9,162.2 1480.5,162.2 1480.5,160.5 1471.3,160.5 1471.3,162.2 
				1474.9,162.2 			"/>
			<rect x="1488.1" y="160.5" class="st25" width="2.1" height="10.8"/>
		</g>
	</g>
</g>
<g>
	<g>
		<defs>
			<rect id="SVGID_33_" x="1651.3" y="43.3" width="423.2" height="226.8"/>
		</defs>
		<clipPath id="SVGID_34_">
			<use xlink:href="#SVGID_33_"  style="overflow:visible;"/>
		</clipPath>
		<rect x="1651.3" y="43.3" class="st27" width="423.2" height="226.8"/>
		<path class="st28" d="M1767.3,141.9h-8l-21,16.6v6.4h21.2v6.5h7.8V141.9z M1747.1,159l12.5-9.8v9.8H1747.1z"/>
		<g class="st29">
			<defs>
				<rect id="SVGID_35_" x="1651.3" y="43.3" width="423.2" height="226.8"/>
			</defs>
			<clipPath id="SVGID_36_">
				<use xlink:href="#SVGID_35_"  style="overflow:visible;"/>
			</clipPath>
			<path class="st30" d="M1803.5,157c-1.2-0.5-2.6-0.7-4.1-0.8c1.2-0.2,2.3-0.4,3.2-0.8c1.3-0.6,2.3-1.4,3-2.4c0.7-1.1,1-2.3,1-3.8
				c0-2.3-0.8-4-2.4-5.3c-1.6-1.3-3.9-1.9-6.7-1.9h-22.3v29.6h22.3c2.2,0,4-0.3,5.6-1c1.5-0.6,2.7-1.6,3.6-2.8
				c0.8-1.2,1.2-2.6,1.2-4.3c0-1.5-0.4-2.8-1.1-3.9C1805.9,158.4,1804.9,157.6,1803.5,157 M1783,147.9h12.5c1,0,1.7,0.3,2.3,0.8
				c0.6,0.5,0.8,1.2,0.8,2c0,0.6-0.1,1.1-0.4,1.6c-0.2,0.4-0.6,0.8-1.1,1c-0.5,0.2-1,0.4-1.6,0.4H1783V147.9z M1799.2,164
				c-0.3,0.5-0.7,0.8-1.2,1.1c-0.5,0.3-1.1,0.4-1.7,0.4H1783v-6.5h13.2c0.7,0,1.2,0.1,1.7,0.4c0.5,0.3,0.9,0.7,1.2,1.1
				c0.3,0.5,0.4,1.1,0.4,1.8C1799.6,163,1799.4,163.5,1799.2,164"/>
			<polygon class="st31" points="1817.8,141.9 1808.6,141.9 1823.4,160.4 1815,171.5 1824.1,171.5 1832.1,160.4 			"/>
			<polygon class="st30" points="1830.5,151.7 1837.5,141.9 1846,141.9 1834.6,157 			"/>
			<path class="st30" d="M1949.7,161c-0.8-0.4-1.8-0.7-2.9-0.7c-1.1,0-2.1,0.2-2.9,0.7c-0.8,0.5-1.5,1.1-1.9,1.9
				c-0.5,0.8-0.7,1.8-0.7,3c0,1.1,0.2,2.1,0.7,3c0.5,0.8,1.1,1.5,1.9,1.9c0.8,0.5,1.8,0.7,2.9,0.7c1.1,0,2.1-0.2,2.9-0.7
				c0.8-0.5,1.5-1.1,1.9-1.9c0.5-0.8,0.7-1.8,0.7-3c0-1.1-0.2-2.2-0.7-3C1951.2,162.1,1950.6,161.4,1949.7,161 M1949.4,168.7
				c-0.6,0.7-1.5,1-2.6,1c-1.1,0-2-0.4-2.6-1c-0.6-0.7-0.9-1.6-0.9-2.8c0-1.2,0.3-2.1,0.9-2.8c0.6-0.7,1.5-1,2.6-1
				c1.1,0,2,0.4,2.6,1c0.6,0.7,0.9,1.6,0.9,2.8C1950.3,167,1950,168,1949.4,168.7"/>
			<polygon class="st30" points="1960.2,160.5 1960.2,171.3 1962.1,171.3 1962.1,163.6 1962.4,163.6 1962.4,163.7 1968.2,171.3 
				1970.4,171.3 1970.4,160.5 1968.5,160.5 1968.5,168.3 1968.2,168.3 1962.4,160.5 			"/>
			<path class="st30" d="M1986.7,166.2c-0.5-0.5-1.2-0.9-2.3-1.1l-2.4-0.5c-1-0.2-1.5-0.7-1.5-1.4c0-0.5,0.2-0.8,0.6-1.1
				c0.4-0.2,0.9-0.4,1.5-0.4c1.4,0,2.2,0.6,2.5,1.7h2.1c-0.1-1-0.6-1.8-1.3-2.3c-0.8-0.6-1.9-0.9-3.2-0.9c-1.3,0-2.3,0.3-3.1,0.8
				c-0.7,0.6-1.1,1.3-1.1,2.3c0,0.8,0.2,1.4,0.7,1.9c0.5,0.5,1.2,0.8,2.2,1.1l2.3,0.5c0.6,0.1,0.9,0.3,1.2,0.5
				c0.3,0.2,0.4,0.6,0.4,1c0,0.5-0.2,0.9-0.6,1.2c-0.4,0.2-1,0.4-1.7,0.4c-0.8,0-1.5-0.2-2-0.5c-0.5-0.3-0.7-0.8-0.9-1.3h-2.1
				c0.1,1,0.6,1.9,1.4,2.5c0.9,0.6,2,1,3.5,1c1.4,0,2.5-0.3,3.3-0.9c0.8-0.6,1.1-1.4,1.1-2.4
				C1987.4,167.3,1987.2,166.7,1986.7,166.2"/>
			<path class="st30" d="M1853.5,165.1l-2.4-0.5c-1-0.2-1.5-0.7-1.5-1.4c0-0.5,0.2-0.8,0.6-1.1c0.4-0.2,0.9-0.4,1.5-0.4
				c1.4,0,2.2,0.6,2.5,1.7h2.1c-0.1-1-0.6-1.8-1.3-2.3c-0.8-0.6-1.9-0.9-3.2-0.9c-1.3,0-2.3,0.3-3.1,0.8c-0.8,0.6-1.1,1.3-1.1,2.3
				c0,0.8,0.2,1.4,0.7,1.9c0.5,0.5,1.2,0.8,2.2,1.1l2.3,0.5c0.5,0.1,0.9,0.3,1.2,0.5c0.3,0.2,0.4,0.6,0.4,1c0,0.5-0.2,0.9-0.6,1.2
				c-0.4,0.2-1,0.4-1.7,0.4c-0.8,0-1.5-0.2-2-0.5c-0.5-0.3-0.8-0.8-0.9-1.3h-2.1c0.1,1,0.6,1.9,1.4,2.5c0.9,0.6,2,1,3.5,1
				c1.4,0,2.5-0.3,3.3-0.9c0.8-0.6,1.1-1.4,1.1-2.4c0-0.8-0.2-1.5-0.7-2C1855.3,165.7,1854.6,165.3,1853.5,165.1"/>
			<path class="st30" d="M1872.2,161c-0.8-0.4-1.8-0.7-2.9-0.7c-1.1,0-2.1,0.2-2.9,0.7c-0.8,0.5-1.5,1.1-1.9,1.9
				c-0.5,0.8-0.7,1.8-0.7,3c0,1.1,0.2,2.1,0.7,3c0.5,0.8,1.1,1.5,1.9,1.9c0.8,0.5,1.8,0.7,2.9,0.7c1.1,0,2.1-0.2,2.9-0.7
				c0.8-0.5,1.5-1.1,1.9-1.9c0.5-0.8,0.7-1.8,0.7-3c0-1.2-0.2-2.2-0.7-3C1873.6,162.1,1873,161.4,1872.2,161 M1871.8,168.7
				c-0.6,0.7-1.5,1-2.6,1s-2-0.4-2.6-1c-0.6-0.7-0.9-1.6-0.9-2.8c0-1.2,0.3-2.1,0.9-2.8c0.6-0.7,1.5-1,2.6-1c1.1,0,2,0.4,2.6,1
				c0.6,0.7,0.9,1.6,0.9,2.8C1872.7,167,1872.4,168,1871.8,168.7"/>
			<polygon class="st30" points="1884.7,160.5 1882.6,160.5 1882.6,171.3 1890.4,171.3 1890.4,169.6 1884.7,169.6 			"/>
			<path class="st30" d="M1900.2,168.9c-0.4-0.5-0.7-1.1-0.7-1.9v-6.5h-2.1v6.8c0,1,0.2,1.7,0.6,2.4c0.4,0.6,0.9,1.1,1.6,1.4
				c0.7,0.3,1.6,0.4,2.6,0.4c1.5,0,2.7-0.3,3.6-1c0.8-0.7,1.3-1.7,1.3-3.1v-6.9h-2v6.5c0,0.8-0.2,1.4-0.6,1.9
				c-0.4,0.5-1.1,0.7-2.1,0.7C1901.4,169.6,1900.7,169.3,1900.2,168.9"/>
			<polygon class="st30" points="1918.1,171.3 1920.1,171.3 1920.1,162.2 1923.7,162.2 1923.7,160.5 1914.5,160.5 1914.5,162.2 
				1918.1,162.2 			"/>
			<rect x="1931.3" y="160.5" class="st30" width="2.1" height="10.8"/>
		</g>
	</g>
</g>
<g>
	<g>
		<defs>
			<rect id="SVGID_37_" x="2094.5" y="43.3" width="423.2" height="226.8"/>
		</defs>
		<clipPath id="SVGID_38_">
			<use xlink:href="#SVGID_37_"  style="overflow:visible;"/>
		</clipPath>
		<rect x="2094.5" y="43.3" class="st32" width="423.2" height="226.8"/>
		<path class="st33" d="M2210.5,141.9h-8l-21,16.6v6.4h21.2v6.5h7.8V141.9z M2190.3,159l12.5-9.8v9.8H2190.3z"/>
		<g class="st34">
			<defs>
				<rect id="SVGID_39_" x="2094.5" y="43.3" width="423.2" height="226.8"/>
			</defs>
			<clipPath id="SVGID_40_">
				<use xlink:href="#SVGID_39_"  style="overflow:visible;"/>
			</clipPath>
			<path class="st35" d="M2246.7,157c-1.2-0.5-2.6-0.7-4.1-0.8c1.2-0.2,2.3-0.4,3.2-0.8c1.3-0.6,2.3-1.4,3-2.4c0.7-1.1,1-2.3,1-3.8
				c0-2.3-0.8-4-2.4-5.3c-1.6-1.3-3.9-1.9-6.7-1.9h-22.3v29.6h22.3c2.2,0,4-0.3,5.6-1c1.5-0.6,2.7-1.6,3.6-2.8
				c0.8-1.2,1.2-2.6,1.2-4.3c0-1.5-0.4-2.8-1.1-3.9C2249.1,158.4,2248.1,157.6,2246.7,157 M2226.2,147.9h12.5c1,0,1.7,0.3,2.3,0.8
				c0.6,0.5,0.8,1.2,0.8,2c0,0.6-0.1,1.1-0.4,1.6c-0.2,0.4-0.6,0.8-1.1,1c-0.5,0.2-1,0.4-1.6,0.4h-12.5V147.9z M2242.4,164
				c-0.3,0.5-0.7,0.8-1.2,1.1c-0.5,0.3-1.1,0.4-1.7,0.4h-13.2v-6.5h13.2c0.7,0,1.2,0.1,1.7,0.4c0.5,0.3,0.9,0.7,1.2,1.1
				c0.3,0.5,0.4,1.1,0.4,1.8C2242.8,163,2242.6,163.5,2242.4,164"/>
			<polygon class="st35" points="2261,141.9 2251.8,141.9 2266.6,160.4 2258.2,171.5 2267.3,171.5 2275.3,160.4 			"/>
			<polygon class="st35" points="2273.7,151.7 2280.7,141.9 2289.2,141.9 2277.8,157 			"/>
			<path class="st35" d="M2392.9,161c-0.8-0.4-1.8-0.7-2.9-0.7c-1.1,0-2.1,0.2-2.9,0.7c-0.8,0.5-1.5,1.1-1.9,1.9
				c-0.5,0.8-0.7,1.8-0.7,3c0,1.1,0.2,2.1,0.7,3c0.5,0.8,1.1,1.5,1.9,1.9c0.8,0.5,1.8,0.7,2.9,0.7c1.1,0,2.1-0.2,2.9-0.7
				c0.8-0.5,1.5-1.1,1.9-1.9c0.5-0.8,0.7-1.8,0.7-3c0-1.1-0.2-2.2-0.7-3C2394.4,162.1,2393.8,161.4,2392.9,161 M2392.6,168.7
				c-0.6,0.7-1.5,1-2.6,1c-1.1,0-2-0.4-2.6-1c-0.6-0.7-0.9-1.6-0.9-2.8c0-1.2,0.3-2.1,0.9-2.8c0.6-0.7,1.5-1,2.6-1
				c1.1,0,2,0.4,2.6,1c0.6,0.7,0.9,1.6,0.9,2.8C2393.5,167,2393.2,168,2392.6,168.7"/>
			<polygon class="st35" points="2403.4,160.5 2403.4,171.3 2405.3,171.3 2405.3,163.6 2405.6,163.6 2405.6,163.7 2411.4,171.3 
				2413.6,171.3 2413.6,160.5 2411.7,160.5 2411.7,168.3 2411.4,168.3 2405.6,160.5 			"/>
			<path class="st35" d="M2429.9,166.2c-0.5-0.5-1.2-0.9-2.3-1.1l-2.4-0.5c-1-0.2-1.5-0.7-1.5-1.4c0-0.5,0.2-0.8,0.6-1.1
				c0.4-0.2,0.9-0.4,1.5-0.4c1.4,0,2.2,0.6,2.5,1.7h2.1c-0.1-1-0.6-1.8-1.3-2.3c-0.8-0.6-1.9-0.9-3.2-0.9c-1.3,0-2.3,0.3-3.1,0.8
				c-0.7,0.6-1.1,1.3-1.1,2.3c0,0.8,0.2,1.4,0.7,1.9c0.5,0.5,1.2,0.8,2.2,1.1l2.3,0.5c0.6,0.1,0.9,0.3,1.2,0.5
				c0.3,0.2,0.4,0.6,0.4,1c0,0.5-0.2,0.9-0.6,1.2c-0.4,0.2-1,0.4-1.7,0.4c-0.8,0-1.5-0.2-2-0.5c-0.5-0.3-0.7-0.8-0.9-1.3h-2.1
				c0.1,1,0.6,1.9,1.4,2.5c0.9,0.6,2,1,3.5,1c1.4,0,2.5-0.3,3.3-0.9c0.8-0.6,1.1-1.4,1.1-2.4
				C2430.6,167.3,2430.4,166.7,2429.9,166.2"/>
			<path class="st35" d="M2296.7,165.1l-2.4-0.5c-1-0.2-1.5-0.7-1.5-1.4c0-0.5,0.2-0.8,0.6-1.1c0.4-0.2,0.9-0.4,1.5-0.4
				c1.4,0,2.2,0.6,2.5,1.7h2.1c-0.1-1-0.6-1.8-1.3-2.3c-0.8-0.6-1.9-0.9-3.2-0.9c-1.3,0-2.3,0.3-3.1,0.8c-0.8,0.6-1.1,1.3-1.1,2.3
				c0,0.8,0.2,1.4,0.7,1.9c0.5,0.5,1.2,0.8,2.2,1.1l2.3,0.5c0.5,0.1,0.9,0.3,1.2,0.5c0.3,0.2,0.4,0.6,0.4,1c0,0.5-0.2,0.9-0.6,1.2
				c-0.4,0.2-1,0.4-1.7,0.4c-0.8,0-1.5-0.2-2-0.5c-0.5-0.3-0.8-0.8-0.9-1.3h-2.1c0.1,1,0.6,1.9,1.4,2.5c0.9,0.6,2,1,3.5,1
				c1.4,0,2.5-0.3,3.3-0.9c0.8-0.6,1.1-1.4,1.1-2.4c0-0.8-0.2-1.5-0.7-2C2298.5,165.7,2297.8,165.3,2296.7,165.1"/>
			<path class="st35" d="M2315.4,161c-0.8-0.4-1.8-0.7-2.9-0.7c-1.1,0-2.1,0.2-2.9,0.7c-0.8,0.5-1.5,1.1-1.9,1.9
				c-0.5,0.8-0.7,1.8-0.7,3c0,1.1,0.2,2.1,0.7,3c0.5,0.8,1.1,1.5,1.9,1.9c0.8,0.5,1.8,0.7,2.9,0.7c1.1,0,2.1-0.2,2.9-0.7
				c0.8-0.5,1.5-1.1,1.9-1.9c0.5-0.8,0.7-1.8,0.7-3c0-1.2-0.2-2.2-0.7-3C2316.8,162.1,2316.2,161.4,2315.4,161 M2315,168.7
				c-0.6,0.7-1.5,1-2.6,1s-2-0.4-2.6-1c-0.6-0.7-0.9-1.6-0.9-2.8c0-1.2,0.3-2.1,0.9-2.8c0.6-0.7,1.5-1,2.6-1c1.1,0,2,0.4,2.6,1
				c0.6,0.7,0.9,1.6,0.9,2.8C2315.9,167,2315.6,168,2315,168.7"/>
			<polygon class="st35" points="2327.8,160.5 2325.8,160.5 2325.8,171.3 2333.6,171.3 2333.6,169.6 2327.8,169.6 			"/>
			<path class="st35" d="M2343.4,168.9c-0.4-0.5-0.7-1.1-0.7-1.9v-6.5h-2.1v6.8c0,1,0.2,1.7,0.6,2.4c0.4,0.6,0.9,1.1,1.6,1.4
				c0.7,0.3,1.6,0.4,2.5,0.4c1.5,0,2.7-0.3,3.6-1c0.8-0.7,1.3-1.7,1.3-3.1v-6.9h-2v6.5c0,0.8-0.2,1.4-0.6,1.9
				c-0.4,0.5-1.1,0.7-2.1,0.7C2344.6,169.6,2343.9,169.3,2343.4,168.9"/>
			<polygon class="st35" points="2361.3,171.3 2363.3,171.3 2363.3,162.2 2366.9,162.2 2366.9,160.5 2357.7,160.5 2357.7,162.2 
				2361.3,162.2 			"/>
			<rect x="2374.5" y="160.5" class="st35" width="2.1" height="10.8"/>
		</g>
	</g>
</g>
<g>
	<g>
		<defs>
			<rect id="SVGID_41_" x="2537.7" y="43.3" width="423.2" height="226.8"/>
		</defs>
		<clipPath id="SVGID_42_">
			<use xlink:href="#SVGID_41_"  style="overflow:visible;"/>
		</clipPath>
		<rect x="2537.7" y="43.3" class="st36" width="423.2" height="226.8"/>
		<path class="st37" d="M2653.7,141.9h-8l-21,16.6v6.4h21.2v6.5h7.8V141.9z M2633.5,159l12.5-9.8v9.8H2633.5z"/>
		<g class="st36">
			<defs>
				<rect id="SVGID_43_" x="2537.7" y="43.3" width="423.2" height="226.8"/>
			</defs>
			<clipPath id="SVGID_44_">
				<use xlink:href="#SVGID_43_"  style="overflow:visible;"/>
			</clipPath>
			<path class="st38" d="M2689.9,157c-1.2-0.5-2.6-0.7-4.1-0.8c1.2-0.2,2.3-0.4,3.2-0.8c1.3-0.6,2.3-1.4,3-2.4c0.7-1.1,1-2.3,1-3.8
				c0-2.3-0.8-4-2.4-5.3c-1.6-1.3-3.9-1.9-6.7-1.9h-22.3v29.6h22.3c2.2,0,4-0.3,5.6-1c1.5-0.6,2.7-1.6,3.6-2.8
				c0.8-1.2,1.2-2.6,1.2-4.3c0-1.5-0.4-2.8-1.1-3.9C2692.3,158.4,2691.3,157.6,2689.9,157 M2669.4,147.9h12.5c1,0,1.7,0.3,2.3,0.8
				c0.6,0.5,0.8,1.2,0.8,2c0,0.6-0.1,1.1-0.4,1.6c-0.2,0.4-0.6,0.8-1.1,1c-0.5,0.2-1,0.4-1.6,0.4h-12.5V147.9z M2685.6,164
				c-0.3,0.5-0.7,0.8-1.2,1.1c-0.5,0.3-1.1,0.4-1.7,0.4h-13.2v-6.5h13.2c0.7,0,1.2,0.1,1.7,0.4c0.5,0.3,0.9,0.7,1.2,1.1
				c0.3,0.5,0.4,1.1,0.4,1.8C2686,163,2685.8,163.5,2685.6,164"/>
			<polygon class="st38" points="2704.2,141.9 2695,141.9 2709.8,160.4 2701.4,171.5 2710.5,171.5 2718.5,160.4 			"/>
			<polygon class="st38" points="2716.9,151.7 2723.9,141.9 2732.4,141.9 2721,157 			"/>
			<path class="st38" d="M2836.1,161c-0.8-0.4-1.8-0.7-2.9-0.7c-1.1,0-2.1,0.2-2.9,0.7c-0.8,0.5-1.5,1.1-1.9,1.9
				c-0.5,0.8-0.7,1.8-0.7,3c0,1.1,0.2,2.1,0.7,3c0.5,0.8,1.1,1.5,1.9,1.9c0.8,0.5,1.8,0.7,2.9,0.7c1.1,0,2.1-0.2,2.9-0.7
				c0.8-0.5,1.5-1.1,1.9-1.9c0.5-0.8,0.7-1.8,0.7-3c0-1.1-0.2-2.2-0.7-3C2837.6,162.1,2837,161.4,2836.1,161 M2835.8,168.7
				c-0.6,0.7-1.5,1-2.6,1c-1.1,0-2-0.4-2.6-1c-0.6-0.7-0.9-1.6-0.9-2.8c0-1.2,0.3-2.1,0.9-2.8c0.6-0.7,1.5-1,2.6-1
				c1.1,0,2,0.4,2.6,1c0.6,0.7,0.9,1.6,0.9,2.8C2836.7,167,2836.4,168,2835.8,168.7"/>
			<polygon class="st38" points="2846.6,160.5 2846.6,171.3 2848.5,171.3 2848.5,163.6 2848.8,163.6 2848.8,163.7 2854.5,171.3 
				2856.8,171.3 2856.8,160.5 2854.9,160.5 2854.9,168.3 2854.6,168.3 2848.8,160.5 			"/>
			<path class="st38" d="M2873.1,166.2c-0.5-0.5-1.2-0.9-2.3-1.1l-2.4-0.5c-1-0.2-1.5-0.7-1.5-1.4c0-0.5,0.2-0.8,0.6-1.1
				c0.4-0.2,0.9-0.4,1.5-0.4c1.4,0,2.2,0.6,2.5,1.7h2.1c-0.1-1-0.6-1.8-1.3-2.3c-0.8-0.6-1.9-0.9-3.2-0.9c-1.3,0-2.3,0.3-3.1,0.8
				c-0.7,0.6-1.1,1.3-1.1,2.3c0,0.8,0.2,1.4,0.7,1.9c0.5,0.5,1.2,0.8,2.2,1.1l2.3,0.5c0.6,0.1,0.9,0.3,1.2,0.5
				c0.3,0.2,0.4,0.6,0.4,1c0,0.5-0.2,0.9-0.6,1.2c-0.4,0.2-1,0.4-1.7,0.4c-0.8,0-1.5-0.2-2-0.5c-0.5-0.3-0.7-0.8-0.9-1.3h-2.1
				c0.1,1,0.6,1.9,1.4,2.5c0.9,0.6,2,1,3.5,1c1.4,0,2.5-0.3,3.3-0.9c0.8-0.6,1.1-1.4,1.1-2.4
				C2873.8,167.3,2873.6,166.7,2873.1,166.2"/>
			<path class="st38" d="M2739.9,165.1l-2.4-0.5c-1-0.2-1.5-0.7-1.5-1.4c0-0.5,0.2-0.8,0.6-1.1c0.4-0.2,0.9-0.4,1.5-0.4
				c1.4,0,2.2,0.6,2.5,1.7h2.1c-0.1-1-0.6-1.8-1.3-2.3c-0.8-0.6-1.9-0.9-3.2-0.9c-1.3,0-2.3,0.3-3.1,0.8c-0.8,0.6-1.1,1.3-1.1,2.3
				c0,0.8,0.2,1.4,0.7,1.9c0.5,0.5,1.2,0.8,2.2,1.1l2.3,0.5c0.5,0.1,0.9,0.3,1.2,0.5c0.3,0.2,0.4,0.6,0.4,1c0,0.5-0.2,0.9-0.6,1.2
				c-0.4,0.2-1,0.4-1.7,0.4c-0.8,0-1.5-0.2-2-0.5c-0.5-0.3-0.8-0.8-0.9-1.3h-2.1c0.1,1,0.6,1.9,1.4,2.5c0.9,0.6,2,1,3.5,1
				c1.4,0,2.5-0.3,3.3-0.9c0.8-0.6,1.1-1.4,1.1-2.4c0-0.8-0.2-1.5-0.7-2C2741.7,165.7,2741,165.3,2739.9,165.1"/>
			<path class="st38" d="M2758.6,161c-0.8-0.4-1.8-0.7-2.9-0.7c-1.1,0-2.1,0.2-2.9,0.7c-0.8,0.5-1.5,1.1-1.9,1.9
				c-0.5,0.8-0.7,1.8-0.7,3c0,1.1,0.2,2.1,0.7,3c0.5,0.8,1.1,1.5,1.9,1.9c0.8,0.5,1.8,0.7,2.9,0.7c1.1,0,2.1-0.2,2.9-0.7
				c0.8-0.5,1.5-1.1,1.9-1.9c0.5-0.8,0.7-1.8,0.7-3c0-1.2-0.2-2.2-0.7-3C2760,162.1,2759.4,161.4,2758.6,161 M2758.2,168.7
				c-0.6,0.7-1.5,1-2.6,1c-1.1,0-2-0.4-2.6-1c-0.6-0.7-0.9-1.6-0.9-2.8c0-1.2,0.3-2.1,0.9-2.8c0.6-0.7,1.5-1,2.6-1
				c1.1,0,2,0.4,2.6,1c0.6,0.7,0.9,1.6,0.9,2.8C2759.1,167,2758.8,168,2758.2,168.7"/>
			<polygon class="st38" points="2771,160.5 2769,160.5 2769,171.3 2776.8,171.3 2776.8,169.6 2771,169.6 			"/>
			<path class="st38" d="M2786.6,168.9c-0.4-0.5-0.7-1.1-0.7-1.9v-6.5h-2.1v6.8c0,1,0.2,1.7,0.6,2.4c0.4,0.6,0.9,1.1,1.6,1.4
				c0.7,0.3,1.6,0.4,2.6,0.4c1.5,0,2.7-0.3,3.6-1c0.8-0.7,1.3-1.7,1.3-3.1v-6.9h-2v6.5c0,0.8-0.2,1.4-0.6,1.9
				c-0.4,0.5-1.1,0.7-2.1,0.7C2787.8,169.6,2787.1,169.3,2786.6,168.9"/>
			<polygon class="st38" points="2804.5,171.3 2806.5,171.3 2806.5,162.2 2810.1,162.2 2810.1,160.5 2800.9,160.5 2800.9,162.2 
				2804.5,162.2 			"/>
			<rect x="2817.7" y="160.5" class="st38" width="2.1" height="10.8"/>
		</g>
	</g>
</g>
<g>
	<g>
		<defs>
			<rect id="SVGID_45_" x="2980.9" y="43.3" width="423.2" height="226.8"/>
		</defs>
		<clipPath id="SVGID_46_">
			<use xlink:href="#SVGID_45_"  style="overflow:visible;"/>
		</clipPath>
		<path class="st39" d="M3096.9,141.9h-8l-21,16.6v6.4h21.2v6.5h7.8V141.9z M3076.7,159l12.5-9.8v9.8H3076.7z"/>
		<g class="st39">
			<defs>
				<rect id="SVGID_47_" x="2980.9" y="43.3" width="423.2" height="226.8"/>
			</defs>
			<clipPath id="SVGID_48_">
				<use xlink:href="#SVGID_47_"  style="overflow:visible;"/>
			</clipPath>
			<path class="st40" d="M3133.1,157c-1.2-0.5-2.6-0.7-4.1-0.8c1.2-0.2,2.3-0.4,3.2-0.8c1.3-0.6,2.3-1.4,3-2.4c0.7-1.1,1-2.3,1-3.8
				c0-2.3-0.8-4-2.4-5.3c-1.6-1.3-3.9-1.9-6.7-1.9h-22.3v29.6h22.3c2.2,0,4-0.3,5.6-1c1.5-0.6,2.7-1.6,3.6-2.8
				c0.8-1.2,1.2-2.6,1.2-4.3c0-1.5-0.4-2.8-1.1-3.9C3135.5,158.4,3134.5,157.6,3133.1,157 M3112.6,147.9h12.5c1,0,1.7,0.3,2.3,0.8
				c0.6,0.5,0.8,1.2,0.8,2c0,0.6-0.1,1.1-0.4,1.6c-0.2,0.4-0.6,0.8-1.1,1c-0.5,0.2-1,0.4-1.6,0.4h-12.5V147.9z M3128.7,164
				c-0.3,0.5-0.7,0.8-1.2,1.1c-0.5,0.3-1.1,0.4-1.7,0.4h-13.2v-6.5h13.2c0.7,0,1.2,0.1,1.7,0.4c0.5,0.3,0.9,0.7,1.2,1.1
				c0.3,0.5,0.4,1.1,0.4,1.8C3129.2,163,3129,163.5,3128.7,164"/>
			<polygon class="st40" points="3147.4,141.9 3138.2,141.9 3152.9,160.4 3144.6,171.5 3153.7,171.5 3161.7,160.4 			"/>
			<polygon class="st40" points="3160.1,151.7 3167.1,141.9 3175.6,141.9 3164.2,157 			"/>
			<path class="st40" d="M3279.3,161c-0.8-0.4-1.8-0.7-2.9-0.7c-1.1,0-2.1,0.2-2.9,0.7c-0.8,0.5-1.5,1.1-1.9,1.9
				c-0.5,0.8-0.7,1.8-0.7,3c0,1.1,0.2,2.1,0.7,3c0.5,0.8,1.1,1.5,1.9,1.9c0.8,0.5,1.8,0.7,2.9,0.7c1.1,0,2.1-0.2,2.9-0.7
				c0.8-0.5,1.5-1.1,1.9-1.9c0.5-0.8,0.7-1.8,0.7-3c0-1.1-0.2-2.2-0.7-3C3280.8,162.1,3280.2,161.4,3279.3,161 M3279,168.7
				c-0.6,0.7-1.5,1-2.6,1c-1.1,0-2-0.4-2.6-1c-0.6-0.7-0.9-1.6-0.9-2.8c0-1.2,0.3-2.1,0.9-2.8c0.6-0.7,1.5-1,2.6-1
				c1.1,0,2,0.4,2.6,1c0.6,0.7,0.9,1.6,0.9,2.8C3279.9,167,3279.6,168,3279,168.7"/>
			<polygon class="st40" points="3289.8,160.5 3289.8,171.3 3291.7,171.3 3291.7,163.6 3292,163.6 3292,163.7 3297.7,171.3 
				3300,171.3 3300,160.5 3298.1,160.5 3298.1,168.3 3297.8,168.3 3292,160.5 			"/>
			<path class="st40" d="M3316.3,166.2c-0.5-0.5-1.2-0.9-2.3-1.1l-2.4-0.5c-1-0.2-1.5-0.7-1.5-1.4c0-0.5,0.2-0.8,0.6-1.1
				c0.4-0.2,0.9-0.4,1.5-0.4c1.4,0,2.2,0.6,2.5,1.7h2.1c-0.1-1-0.6-1.8-1.3-2.3c-0.8-0.6-1.9-0.9-3.2-0.9c-1.3,0-2.3,0.3-3.1,0.8
				c-0.7,0.6-1.1,1.3-1.1,2.3c0,0.8,0.2,1.4,0.7,1.9c0.5,0.5,1.2,0.8,2.2,1.1l2.3,0.5c0.6,0.1,0.9,0.3,1.2,0.5
				c0.3,0.2,0.4,0.6,0.4,1c0,0.5-0.2,0.9-0.6,1.2c-0.4,0.2-1,0.4-1.7,0.4c-0.8,0-1.5-0.2-2-0.5c-0.5-0.3-0.7-0.8-0.9-1.3h-2.1
				c0.1,1,0.6,1.9,1.4,2.5c0.9,0.6,2,1,3.5,1c1.4,0,2.5-0.3,3.3-0.9c0.8-0.6,1.1-1.4,1.1-2.4C3317,167.3,3316.8,166.7,3316.3,166.2"
				/>
			<path class="st40" d="M3183.1,165.1l-2.4-0.5c-1-0.2-1.5-0.7-1.5-1.4c0-0.5,0.2-0.8,0.6-1.1c0.4-0.2,0.9-0.4,1.5-0.4
				c1.4,0,2.2,0.6,2.5,1.7h2.1c-0.1-1-0.6-1.8-1.3-2.3c-0.8-0.6-1.9-0.9-3.2-0.9c-1.3,0-2.3,0.3-3.1,0.8c-0.8,0.6-1.1,1.3-1.1,2.3
				c0,0.8,0.2,1.4,0.7,1.9c0.5,0.5,1.2,0.8,2.2,1.1l2.3,0.5c0.6,0.1,0.9,0.3,1.2,0.5c0.3,0.2,0.4,0.6,0.4,1c0,0.5-0.2,0.9-0.6,1.2
				c-0.4,0.2-0.9,0.4-1.7,0.4c-0.8,0-1.5-0.2-2-0.5c-0.5-0.3-0.8-0.8-0.9-1.3h-2.1c0.1,1,0.6,1.9,1.4,2.5c0.9,0.6,2,1,3.5,1
				c1.4,0,2.5-0.3,3.3-0.9c0.8-0.6,1.1-1.4,1.1-2.4c0-0.8-0.2-1.5-0.7-2C3184.9,165.7,3184.2,165.3,3183.1,165.1"/>
			<path class="st40" d="M3201.8,161c-0.8-0.4-1.8-0.7-2.9-0.7c-1.1,0-2.1,0.2-2.9,0.7c-0.8,0.5-1.5,1.1-1.9,1.9
				c-0.5,0.8-0.7,1.8-0.7,3c0,1.1,0.2,2.1,0.7,3c0.5,0.8,1.1,1.5,1.9,1.9c0.8,0.5,1.8,0.7,2.9,0.7c1.1,0,2.1-0.2,2.9-0.7
				c0.8-0.5,1.5-1.1,1.9-1.9c0.5-0.8,0.7-1.8,0.7-3c0-1.2-0.2-2.2-0.7-3C3203.2,162.1,3202.6,161.4,3201.8,161 M3201.4,168.7
				c-0.6,0.7-1.5,1-2.6,1c-1.1,0-2-0.4-2.6-1c-0.6-0.7-0.9-1.6-0.9-2.8c0-1.2,0.3-2.1,0.9-2.8c0.6-0.7,1.5-1,2.6-1
				c1.1,0,2,0.4,2.6,1c0.6,0.7,0.9,1.6,0.9,2.8C3202.3,167,3202,168,3201.4,168.7"/>
			<polygon class="st40" points="3214.2,160.5 3212.2,160.5 3212.2,171.3 3220,171.3 3220,169.6 3214.2,169.6 			"/>
			<path class="st40" d="M3229.8,168.9c-0.4-0.5-0.7-1.1-0.7-1.9v-6.5h-2.1v6.8c0,1,0.2,1.7,0.6,2.4c0.4,0.6,0.9,1.1,1.6,1.4
				c0.7,0.3,1.6,0.4,2.6,0.4c1.5,0,2.7-0.3,3.6-1c0.8-0.7,1.3-1.7,1.3-3.1v-6.9h-2v6.5c0,0.8-0.2,1.4-0.6,1.9
				c-0.4,0.5-1.1,0.7-2.1,0.7C3231,169.6,3230.3,169.3,3229.8,168.9"/>
			<polygon class="st40" points="3247.7,171.3 3249.7,171.3 3249.7,162.2 3253.3,162.2 3253.3,160.5 3244.1,160.5 3244.1,162.2 
				3247.7,162.2 			"/>
			<rect x="3260.9" y="160.5" class="st40" width="2.1" height="10.8"/>
		</g>
	</g>
</g>
<g>
	<g>
		<defs>
			<rect id="SVGID_49_" x="3424.1" y="43.3" width="274.3" height="226.8"/>
		</defs>
		<clipPath id="SVGID_50_">
			<use xlink:href="#SVGID_49_"  style="overflow:visible;"/>
		</clipPath>
		<path class="st41" d="M3529.8,138h-10.1l-26.6,21v8.1h26.9v8.3h9.8V138z M3504.2,159.6l15.8-12.4v12.4H3504.2z"/>
		<g class="st42">
			<defs>
				<rect id="SVGID_51_" x="3424.1" y="43.3" width="274.3" height="226.8"/>
			</defs>
			<clipPath id="SVGID_52_">
				<use xlink:href="#SVGID_51_"  style="overflow:visible;"/>
			</clipPath>
			<path class="st43" d="M3575.6,157.1c-1.5-0.6-3.3-0.9-5.2-1.1c1.5-0.2,2.9-0.5,4.1-1c1.6-0.7,2.9-1.7,3.7-3.1
				c0.9-1.3,1.3-2.9,1.3-4.8c0-2.9-1-5.1-3.1-6.7c-2-1.6-4.9-2.4-8.5-2.4h-28.2v37.4h28.2c2.8,0,5.1-0.4,7.1-1.2
				c2-0.8,3.5-2,4.5-3.5c1-1.5,1.6-3.3,1.6-5.5c0-1.9-0.5-3.5-1.4-4.9C3578.7,158.9,3577.3,157.8,3575.6,157.1 M3549.7,145.5h15.8
				c1.2,0,2.2,0.3,2.9,1c0.7,0.6,1,1.5,1,2.6c0,0.8-0.2,1.4-0.5,2c-0.3,0.6-0.8,1-1.3,1.3c-0.6,0.3-1.2,0.5-2,0.5h-15.9V145.5z
				 M3570.1,166c-0.3,0.6-0.8,1.1-1.5,1.4c-0.6,0.3-1.4,0.5-2.2,0.5h-16.8v-8.2h16.8c0.8,0,1.6,0.2,2.2,0.5c0.6,0.3,1.1,0.8,1.5,1.4
				c0.3,0.6,0.5,1.4,0.5,2.2C3570.6,164.7,3570.5,165.4,3570.1,166"/>
			<polygon class="st44" points="3593.7,138 3582.1,138 3600.7,161.4 3590.2,175.4 3601.6,175.4 3611.8,161.4 			"/>
			<polygon class="st43" points="3609.7,150.4 3618.6,138 3629.3,138 3615,157.1 			"/>
		</g>
	</g>
</g>
<g>
	<g>
		<defs>
			<rect id="SVGID_53_" x="3718.4" y="43.3" width="274.3" height="226.8"/>
		</defs>
		<clipPath id="SVGID_54_">
			<use xlink:href="#SVGID_53_"  style="overflow:visible;"/>
		</clipPath>
		<rect x="3718.4" y="43.3" class="st45" width="274.3" height="226.8"/>
		<path class="st46" d="M3824.1,138H3814l-26.6,21v8.1h26.9v8.3h9.8V138z M3798.5,159.6l15.8-12.4v12.4H3798.5z"/>
		<g class="st47">
			<defs>
				<rect id="SVGID_55_" x="3718.4" y="43.3" width="274.3" height="226.8"/>
			</defs>
			<clipPath id="SVGID_56_">
				<use xlink:href="#SVGID_55_"  style="overflow:visible;"/>
			</clipPath>
			<path class="st48" d="M3869.9,157.1c-1.5-0.6-3.3-0.9-5.2-1.1c1.5-0.2,2.9-0.5,4.1-1c1.6-0.7,2.9-1.7,3.7-3.1
				c0.9-1.3,1.3-2.9,1.3-4.8c0-2.9-1-5.1-3.1-6.7c-2-1.6-4.9-2.4-8.5-2.4H3834v37.4h28.2c2.8,0,5.1-0.4,7.1-1.2c2-0.8,3.5-2,4.5-3.5
				c1-1.5,1.6-3.3,1.6-5.5c0-1.9-0.5-3.5-1.4-4.9C3873,158.9,3871.7,157.8,3869.9,157.1 M3844,145.5h15.8c1.2,0,2.2,0.3,2.9,1
				c0.7,0.6,1,1.5,1,2.6c0,0.8-0.2,1.4-0.5,2c-0.3,0.6-0.8,1-1.3,1.3c-0.6,0.3-1.2,0.5-2,0.5H3844V145.5z M3864.4,166
				c-0.3,0.6-0.8,1.1-1.5,1.4c-0.6,0.3-1.4,0.5-2.2,0.5H3844v-8.2h16.8c0.8,0,1.6,0.2,2.2,0.5c0.6,0.3,1.1,0.8,1.5,1.4
				c0.3,0.6,0.5,1.4,0.5,2.2C3864.9,164.7,3864.8,165.4,3864.4,166"/>
			<polygon class="st49" points="3888,138 3876.4,138 3895,161.4 3884.5,175.4 3895.9,175.4 3906.1,161.4 			"/>
			<polygon class="st48" points="3904,150.4 3912.9,138 3923.6,138 3909.3,157.1 			"/>
		</g>
	</g>
</g>
<g>
	<g>
		<defs>
			<rect id="SVGID_57_" x="4012.7" y="43.3" width="274.3" height="226.8"/>
		</defs>
		<clipPath id="SVGID_58_">
			<use xlink:href="#SVGID_57_"  style="overflow:visible;"/>
		</clipPath>
		<rect x="4012.7" y="43.3" class="st50" width="274.3" height="226.8"/>
		<path class="st51" d="M4118.4,138h-10.1l-26.6,21v8.1h26.9v8.3h9.8V138z M4092.8,159.6l15.8-12.4v12.4H4092.8z"/>
		<g class="st52">
			<defs>
				<rect id="SVGID_59_" x="4012.7" y="43.3" width="274.3" height="226.8"/>
			</defs>
			<clipPath id="SVGID_60_">
				<use xlink:href="#SVGID_59_"  style="overflow:visible;"/>
			</clipPath>
			<path class="st53" d="M4164.2,157.1c-1.5-0.6-3.3-0.9-5.2-1.1c1.5-0.2,2.9-0.5,4.1-1c1.6-0.7,2.9-1.7,3.7-3.1
				c0.9-1.3,1.3-2.9,1.3-4.8c0-2.9-1-5.1-3.1-6.7c-2-1.6-4.9-2.4-8.5-2.4h-28.2v37.4h28.2c2.8,0,5.1-0.4,7.1-1.2
				c2-0.8,3.5-2,4.5-3.5c1-1.5,1.6-3.3,1.6-5.5c0-1.9-0.5-3.5-1.4-4.9C4167.3,158.9,4166,157.8,4164.2,157.1 M4138.3,145.5h15.8
				c1.2,0,2.2,0.3,2.9,1c0.7,0.6,1,1.5,1,2.6c0,0.8-0.2,1.4-0.5,2c-0.3,0.6-0.8,1-1.3,1.3c-0.6,0.3-1.2,0.5-2,0.5h-15.9V145.5z
				 M4158.7,166c-0.3,0.6-0.8,1.1-1.5,1.4c-0.6,0.3-1.4,0.5-2.2,0.5h-16.8v-8.2h16.8c0.8,0,1.6,0.2,2.2,0.5c0.6,0.3,1.1,0.8,1.5,1.4
				c0.3,0.6,0.5,1.4,0.5,2.2C4159.2,164.7,4159.1,165.4,4158.7,166"/>
			<polygon class="st54" points="4182.3,138 4170.7,138 4189.3,161.4 4178.8,175.4 4190.2,175.4 4200.4,161.4 			"/>
			<polygon class="st53" points="4198.3,150.4 4207.2,138 4217.9,138 4203.6,157.1 			"/>
		</g>
	</g>
</g>
<g>
	<g>
		<defs>
			<rect id="SVGID_61_" x="4307" y="43.3" width="274.3" height="226.8"/>
		</defs>
		<clipPath id="SVGID_62_">
			<use xlink:href="#SVGID_61_"  style="overflow:visible;"/>
		</clipPath>
		<rect x="4307" y="43.3" class="st55" width="274.3" height="226.8"/>
		<path class="st56" d="M4412.7,138h-10.1l-26.6,21v8.1h26.9v8.3h9.8V138z M4387.1,159.6l15.8-12.4v12.4H4387.1z"/>
		<g class="st57">
			<defs>
				<rect id="SVGID_63_" x="4307" y="43.3" width="274.3" height="226.8"/>
			</defs>
			<clipPath id="SVGID_64_">
				<use xlink:href="#SVGID_63_"  style="overflow:visible;"/>
			</clipPath>
			<path class="st58" d="M4458.5,157.1c-1.5-0.6-3.3-0.9-5.2-1.1c1.5-0.2,2.9-0.5,4.1-1c1.6-0.7,2.9-1.7,3.7-3.1
				c0.9-1.3,1.3-2.9,1.3-4.8c0-2.9-1-5.1-3.1-6.7c-2-1.6-4.9-2.4-8.5-2.4h-28.2v37.4h28.2c2.8,0,5.1-0.4,7.1-1.2
				c2-0.8,3.5-2,4.5-3.5c1-1.5,1.6-3.3,1.6-5.5c0-1.9-0.5-3.5-1.4-4.9C4461.6,158.9,4460.3,157.8,4458.5,157.1 M4432.6,145.5h15.8
				c1.2,0,2.2,0.3,2.9,1c0.7,0.6,1,1.5,1,2.6c0,0.8-0.2,1.4-0.5,2c-0.3,0.6-0.8,1-1.3,1.3c-0.6,0.3-1.2,0.5-2,0.5h-15.9V145.5z
				 M4453,166c-0.3,0.6-0.8,1.1-1.5,1.4c-0.6,0.3-1.4,0.5-2.2,0.5h-16.8v-8.2h16.8c0.8,0,1.6,0.2,2.2,0.5c0.6,0.3,1.1,0.8,1.5,1.4
				c0.3,0.6,0.5,1.4,0.5,2.2C4453.6,164.7,4453.4,165.4,4453,166"/>
			<polygon class="st58" points="4476.6,138 4465,138 4483.6,161.4 4473.1,175.4 4484.6,175.4 4494.7,161.4 			"/>
			<polygon class="st58" points="4492.6,150.4 4501.5,138 4512.2,138 4497.9,157.1 			"/>
		</g>
	</g>
</g>
<g>
	<g>
		<defs>
			<rect id="SVGID_65_" x="4601.3" y="43.3" width="274.3" height="226.8"/>
		</defs>
		<clipPath id="SVGID_66_">
			<use xlink:href="#SVGID_65_"  style="overflow:visible;"/>
		</clipPath>
		<rect x="4601.3" y="43.3" class="st59" width="274.3" height="226.8"/>
		<path class="st60" d="M4707.1,138H4697l-26.6,21v8.1h26.9v8.3h9.8V138z M4681.5,159.6l15.8-12.4v12.4H4681.5z"/>
		<g class="st59">
			<defs>
				<rect id="SVGID_67_" x="4601.3" y="43.3" width="274.3" height="226.8"/>
			</defs>
			<clipPath id="SVGID_68_">
				<use xlink:href="#SVGID_67_"  style="overflow:visible;"/>
			</clipPath>
			<path class="st61" d="M4752.8,157.1c-1.5-0.6-3.3-0.9-5.2-1.1c1.5-0.2,2.9-0.5,4.1-1c1.6-0.7,2.9-1.7,3.7-3.1
				c0.9-1.3,1.3-2.9,1.3-4.8c0-2.9-1-5.1-3.1-6.7c-2-1.6-4.9-2.4-8.5-2.4h-28.2v37.4h28.2c2.8,0,5.1-0.4,7.1-1.2
				c2-0.8,3.5-2,4.5-3.5c1-1.5,1.6-3.3,1.6-5.5c0-1.9-0.5-3.5-1.4-4.9C4755.9,158.9,4754.6,157.8,4752.8,157.1 M4726.9,145.5h15.8
				c1.2,0,2.2,0.3,2.9,1c0.7,0.6,1,1.5,1,2.6c0,0.8-0.2,1.4-0.5,2c-0.3,0.6-0.8,1-1.3,1.3c-0.6,0.3-1.2,0.5-2,0.5h-15.9V145.5z
				 M4747.3,166c-0.3,0.6-0.8,1.1-1.5,1.4c-0.6,0.3-1.4,0.5-2.2,0.5h-16.8v-8.2h16.8c0.8,0,1.6,0.2,2.2,0.5c0.6,0.3,1.1,0.8,1.5,1.4
				c0.3,0.6,0.5,1.4,0.5,2.2C4747.9,164.7,4747.7,165.4,4747.3,166"/>
			<polygon class="st61" points="4770.9,138 4759.3,138 4777.9,161.4 4767.4,175.4 4778.9,175.4 4789,161.4 			"/>
			<polygon class="st61" points="4786.9,150.4 4795.9,138 4806.5,138 4792.2,157.1 			"/>
		</g>
	</g>
</g>
<g>
	<g>
		<defs>
			<rect id="SVGID_69_" x="4895.6" y="43.3" width="274.3" height="226.8"/>
		</defs>
		<clipPath id="SVGID_70_">
			<use xlink:href="#SVGID_69_"  style="overflow:visible;"/>
		</clipPath>
		<path class="st62" d="M5001.4,138h-10.1l-26.6,21v8.1h26.9v8.3h9.8V138z M4975.8,159.6l15.8-12.4v12.4H4975.8z"/>
		<g class="st62">
			<defs>
				<rect id="SVGID_71_" x="4895.6" y="43.3" width="274.3" height="226.8"/>
			</defs>
			<clipPath id="SVGID_72_">
				<use xlink:href="#SVGID_71_"  style="overflow:visible;"/>
			</clipPath>
			<path class="st63" d="M5047.1,157.1c-1.5-0.6-3.3-0.9-5.2-1.1c1.5-0.2,2.9-0.5,4.1-1c1.6-0.7,2.9-1.7,3.7-3.1
				c0.9-1.3,1.3-2.9,1.3-4.8c0-2.9-1-5.1-3.1-6.7c-2-1.6-4.9-2.4-8.5-2.4h-28.2v37.4h28.2c2.8,0,5.1-0.4,7.1-1.2
				c2-0.8,3.5-2,4.5-3.5c1-1.5,1.6-3.3,1.6-5.5c0-1.9-0.5-3.5-1.4-4.9C5050.2,158.9,5048.9,157.8,5047.1,157.1 M5021.2,145.5h15.8
				c1.2,0,2.2,0.3,2.9,1c0.7,0.6,1,1.5,1,2.6c0,0.8-0.2,1.4-0.5,2c-0.3,0.6-0.8,1-1.3,1.3c-0.6,0.3-1.2,0.5-2,0.5h-15.9V145.5z
				 M5041.6,166c-0.3,0.6-0.8,1.1-1.5,1.4c-0.6,0.3-1.4,0.5-2.2,0.5h-16.8v-8.2h16.8c0.8,0,1.6,0.2,2.2,0.5c0.6,0.3,1.1,0.8,1.5,1.4
				c0.3,0.6,0.5,1.4,0.5,2.2C5042.2,164.7,5042,165.4,5041.6,166"/>
			<polygon class="st63" points="5065.3,138 5053.6,138 5072.3,161.4 5061.7,175.4 5073.2,175.4 5083.3,161.4 			"/>
			<polygon class="st63" points="5081.3,150.4 5090.2,138 5100.8,138 5086.5,157.1 			"/>
		</g>
	</g>
</g>
</svg>
